<svg id="Calque_1" data-name="Calque 1" xmlns="http://www.w3.org/2000/svg" viewBox="0 0 455.2 433.55"><defs><style>.cls-1{fill:#ebebeb;}.cls-2{fill:#fafafa;}.cls-3{fill:#e0e0e0;}.cls-4{fill:#f5f5f5;}.cls-5{fill:#455a64;}.cls-6{fill:#263238;}.cls-7{fill:#fff;}.cls-8{fill:#18315b;}.cls-9{fill:#1479b7;}.cls-10{fill:#fd425f;}.cls-11{fill:#9e6141;}.cls-12{fill:#7a4224;}.cls-13{fill:#7f6358;}.cls-14{opacity:0.3;}</style></defs><g id="freepik--background-complete--inject-11"><path class="cls-1" d="M10,52.82l98.1-25.68a1.52,1.52,0,0,1,1.84,1l19.42,65.12a1.54,1.54,0,0,1-1,1.9h-.06L26.34,120.1A1.5,1.5,0,0,1,24.51,119v0L8.93,54.63A1.52,1.52,0,0,1,10,52.82Z"/><path class="cls-1" d="M8.58,53.2l38-50.91a5.68,5.68,0,0,1,7-1.74l56,26.21"/><polygon class="cls-2" points="14.63 55.66 8.88 33.68 98.26 10.97 104.2 33.55 68.92 79.72 14.63 55.66"/><path class="cls-3" d="M14.63,55.63l1,.43,2.89,1.27,11,4.85L69,79.63h-.1l35.27-46.18v.08c-.84-3.2-1.74-6.61-2.64-10-1.12-4.24-2.22-8.44-3.3-12.53l.11.07L8.89,33.73v-.06c1.8,6.94,3.23,12.44,4.21,16.2.49,1.88.86,3.32,1.11,4.3.13.49.22.86.29,1.11l.09.38a1.15,1.15,0,0,0-.1-.37l-.3-1.1c-.26-1-.64-2.42-1.14-4.29-1-3.76-2.43-9.26-4.26-16.21h0L98.17,10.94h.08V11c1.07,4.09,2.18,8.28,3.29,12.52.91,3.44,1.8,6.85,2.64,10h0L69,79.77h-.06L29.46,62.28l-11-4.89-2.88-1.28Z"/><path class="cls-3" d="M79.25,30.93s-10,2.72-22.37,6-22.4,5.85-22.41,5.8,10-2.72,22.36-6S79.23,30.88,79.25,30.93Z"/><path class="cls-3" d="M89.68,39.23c0,.05-13.51,3.61-30.19,8S29.28,55.06,29.26,55s13.5-3.61,30.19-8S89.66,39.18,89.68,39.23Z"/><path class="cls-3" d="M92.29,49.52S79.41,53,63.5,57.11s-28.83,7.52-28.85,7.42,12.88-3.45,28.8-7.59S92.28,49.47,92.29,49.52Z"/><path class="cls-3" d="M83.26,61.42h-.09l-.26.07-1,.29-3.72,1L65.86,66.13c-4.8,1.3-9.16,2.44-12.32,3.25l-3.74,1-1,.25-.27.06h0l.26-.07,1-.28,3.73-1L65.83,66c4.8-1.3,9.16-2.44,12.31-3.25l3.75-1,1-.25.26-.06Z"/><path class="cls-3" d="M74.06,73s-2.87.82-6.43,1.73-6.46,1.6-6.47,1.55,2.86-.82,6.43-1.73S74.05,73,74.06,73Z"/><path class="cls-3" d="M129.14,94.63a1.61,1.61,0,0,1-.31,0l-.89-.21-3.44-.86-12.61-3.25L93.21,85.42l-11-2.91L76.37,81l-1.48-.39c-.5-.13-1-.27-1.49-.38a10.07,10.07,0,0,0-3-.13A9.64,9.64,0,0,0,65,82.54l-4.41,4.09L52.33,94.5l-14,13.31-9.47,8.94-2.59,2.41-.69.62-.24.2a2.14,2.14,0,0,1,.2-.24l.65-.66,2.52-2.45,9.35-9.06L52,94.17l8.23-7.9L64.6,82.1a10.2,10.2,0,0,1,5.71-2.61,10.06,10.06,0,0,1,3.19.14c.53.12,1,.25,1.52.38l1.48.4c2,.52,3.79,1.56,5.7,2.06,3.82,1,7.64,1.49,11.15,2.42l18.66,5,12.56,3.41,3.41,1,.89.26A.92.92,0,0,0,129.14,94.63Z"/><path class="cls-1" d="M40.42,212.43a17.43,17.43,0,0,0,12.85-14.22c1.59-9.49-4.32-18.39-13.22-19.9s-17.39,5-19,14.46a17.39,17.39,0,0,0,7.63,17.73C3.28,210.17,0,237.31,0,237.31l58.6,9.9S64.39,220.18,40.42,212.43Z"/><rect class="cls-1" x="326.27" y="18.71" width="104.5" height="70.43" transform="translate(5.87 139.49) rotate(-21.04)"/><path class="cls-3" d="M415.25,3a6.24,6.24,0,0,1-.57,1.23l-1.8,3.43L406.1,20.14,383.37,61.37l-.19.34-.37-.12-.9-.29L336.46,46.77l-13.74-4.5L319,41a7.38,7.38,0,0,1-1.28-.5,8.71,8.71,0,0,1,1.34.32l3.78,1.1,13.83,4.22L382.2,60.4l.9.28-.56.23,23-41.1,7-12.37c.81-1.39,1.46-2.5,2-3.34A10.19,10.19,0,0,1,415.25,3Z"/><path class="cls-3" d="M343,106.23c-.24-.09,3.62-11.92,8.64-26.43s9.29-26.2,9.54-26.12-3.62,11.92-8.64,26.43S343.26,106.31,343,106.23Z"/><path class="cls-3" d="M393.29,40.39c.13-.22,10.82,5.93,23.87,13.75s23.52,14.34,23.38,14.57S429.72,62.78,416.67,55,393.15,40.63,393.29,40.39Z"/><rect class="cls-1" x="395.5" y="145.23" width="45.96" height="68.19" transform="translate(191.48 573.99) rotate(-83.29)"/><path class="cls-3" d="M455.2,161.09a4.52,4.52,0,0,1-.71.53l-2.08,1.43-7.71,5.17L419,185.12l-.21.14-.18-.18-.43-.44-21.83-22.2c-2.74-2.82-5-5.13-6.56-6.78L388,153.8a4.73,4.73,0,0,1-.58-.68,4.72,4.72,0,0,1,.67.59l1.85,1.78,6.7,6.64,22,22.08.43.43h-.39l25.76-16.74,7.82-5,2.15-1.33A4.72,4.72,0,0,1,455.2,161.09Z"/><path class="cls-3" d="M382.11,198.76c-.12-.12,5.71-5.78,13-12.63s13.33-12.31,13.45-12.19-5.71,5.78-13,12.64S382.22,198.89,382.11,198.76Z"/><path class="cls-3" d="M431.14,176c.15-.09,4.45,6.72,9.61,15.2s9.25,15.41,9.07,15.51-4.44-6.71-9.6-15.19S431,176.11,431.14,176Z"/><path class="cls-3" d="M423.29,357.34a16.25,16.25,0,0,0,0-2.79q-.24-3.8-.85-7.56A98.68,98.68,0,0,0,420,336a89.62,89.62,0,0,0-4.6-13,69.63,69.63,0,0,0-13.53-21.07,35.48,35.48,0,0,0-3.18-2.95c-.49-.42-.92-.83-1.36-1.16l-1.24-.85a18,18,0,0,0-2.35-1.5c-.13.18,3.33,2.22,7.7,6.87a73.18,73.18,0,0,1,13.19,21,104,104,0,0,1,4.64,12.91c1.2,4.05,2,7.77,2.61,10.91s.91,5.7,1.11,7.48A18.91,18.91,0,0,0,423.29,357.34Z"/><path class="cls-4" d="M447.88,429.22c0,.14-10.63.25-23.73.25s-23.73-.11-23.73-.25S411,429,424.15,429,447.88,429.09,447.88,429.22Z"/></g><g id="freepik--Device--inject-11"><path class="cls-5" d="M270.28,433.4l-156,.08a22.75,22.75,0,0,1-22.76-22.73L91.34,59.34a25.92,25.92,0,0,1,25.9-25.94h0l153.12-.08a23,23,0,0,1,23,23l.19,353.82A23.28,23.28,0,0,1,270.28,433.4Z"/><path class="cls-6" d="M94.69,402.63,94.51,64.24a27.67,27.67,0,0,1,27.65-27.61l140.34-.08a27.66,27.66,0,0,1,27.68,27.64h0l.18,338.39a27.66,27.66,0,0,1-27.64,27.68h0l-140.34.08a27.67,27.67,0,0,1-27.68-27.66Z"/><path class="cls-5" d="M177.83,49.16a2.25,2.25,0,0,1,0-4.5h28.89a2.25,2.25,0,0,1,.3,4.49H177.83Z"/><path class="cls-5" d="M162.34,49.17a2.25,2.25,0,1,1,2.24-2.26h0A2.24,2.24,0,0,1,162.34,49.17Z"/><path class="cls-5" d="M170.61,49.16a2.25,2.25,0,1,1,2.24-2.26h0A2.24,2.24,0,0,1,170.61,49.16Z"/><path class="cls-5" d="M222.34,49.13a2.25,2.25,0,1,1,2.25-2.25h0a2.24,2.24,0,0,1-2.24,2.24Z"/><path class="cls-5" d="M214.07,49.14a2.25,2.25,0,1,1,2.25-2.25h0a2.23,2.23,0,0,1-2.23,2.25Z"/><path class="cls-2" d="M264,41.14H236.8a6,6,0,0,0-5.7,4.26L228.88,53a6.61,6.61,0,0,1-6.37,4.77H162.25A6.65,6.65,0,0,1,155.87,53l-2.23-7.62a5.93,5.93,0,0,0-5.7-4.25H120.72A21.61,21.61,0,0,0,99.07,62.72l.18,340.62a21.6,21.6,0,0,0,21.67,21.53h0l143.25-.07a21.61,21.61,0,0,0,21.65-21.56l-.18-340.61A21.6,21.6,0,0,0,264,41.14Z"/><path class="cls-5" d="M293.39,120.26h0a1.35,1.35,0,0,1,1.33,1.33v43.33a1.33,1.33,0,0,1-1.32,1.33h0Z"/><path class="cls-5" d="M91.37,148.71h0A1.37,1.37,0,0,0,90,150.08v26.37a1.38,1.38,0,0,0,1.38,1.37h0Z"/><path class="cls-5" d="M91.35,110.63h0A1.37,1.37,0,0,0,90,112h0v26.36a1.39,1.39,0,0,0,1.38,1.38h0Z"/><path class="cls-5" d="M91.34,82.12h0a1.19,1.19,0,0,0-1.19,1.19h0V94.48a1.18,1.18,0,0,0,1.18,1.18h0Z"/><rect class="cls-7" x="240.33" y="52.23" width="1.39" height="1.95"/><rect class="cls-7" x="242.59" y="51.36" width="1.39" height="2.81"/><rect class="cls-7" x="244.85" y="50.71" width="1.39" height="3.46"/><rect class="cls-7" x="247.11" y="49.45" width="1.39" height="4.72"/><path class="cls-7" d="M269,54.26h-7a.49.49,0,0,1-.5-.48h0V50.3a.51.51,0,0,1,.49-.5h7a.14.14,0,0,1,.13.13v1.14h.75a.12.12,0,0,1,.12.12h0v1.66a.13.13,0,0,1-.13.13h-.75v1.14a.11.11,0,0,1-.11.13Zm-.13-4.21H262a.24.24,0,0,0-.24.24v3.47A.24.24,0,0,0,262,54h6.84V52.86a.12.12,0,0,1,.12-.12h.75V51.32H269a.12.12,0,0,1-.12-.12Z"/><polygon class="cls-7" points="262.34 53.44 262.34 50.63 268.29 50.62 268.29 51.89 268.29 52.17 268.29 53.44 262.34 53.44"/><path class="cls-7" d="M255.14,54a.51.51,0,1,0-.51.51.51.51,0,0,0,.51-.51Z"/><path class="cls-7" d="M252.89,52.78l.65.64a1.55,1.55,0,0,1,2.18,0l.65-.65a2.45,2.45,0,0,0-3.48,0Z"/><path class="cls-7" d="M254.63,50.63a3.91,3.91,0,0,0-2.76,1.14l.65.65a3,3,0,0,1,4.22,0l.65-.65A3.9,3.9,0,0,0,254.63,50.63Z"/><path class="cls-7" d="M250.81,50.7l.65.65a4.48,4.48,0,0,1,6.34,0l.65-.65a5.4,5.4,0,0,0-7.64,0h0Z"/><path class="cls-8" d="M137.47,136.33a12.89,12.89,0,1,1-12.78-13,12.89,12.89,0,0,1,12.78,13Z"/><path class="cls-6" d="M201.9,126.4c0,.14-12,.16-26.7,0s-26.71-.33-26.71-.48,12-.16,26.71,0S201.91,126.26,201.9,126.4Z"/><path class="cls-3" d="M245.49,138.63c0,.14-21.8.08-48.69-.14s-48.69-.52-48.69-.66,21.8-.08,48.7.14S245.49,138.48,245.49,138.63Z"/><path class="cls-3" d="M245.41,148.24c0,.14-21.8.08-48.69-.14s-48.72-.47-48.72-.66,21.79-.08,48.69.14S245.41,148.09,245.41,148.24Z"/><path class="cls-6" d="M274.15,124.55c0,.15-4.72.22-10.53.18a104.52,104.52,0,0,1-10.52-.35c0-.14,4.71-.22,10.53-.17S274.15,124.41,274.15,124.55Z"/><path class="cls-9" d="M266,138l.87,1.8a1,1,0,0,0,.78.59l2,.3a1,1,0,0,1,1,1,1,1,0,0,1-.39.75l-1.45,1.39a1.07,1.07,0,0,0-.31.93l.33,2a1.06,1.06,0,0,1-.89,1.21,1,1,0,0,1-.65-.11l-1.76-1a1,1,0,0,0-1,0l-1.78.92a1,1,0,0,1-1.39-.28,1,1,0,0,1-.12-.84l.35-2a1,1,0,0,0-.29-.93l-1.42-1.41a1,1,0,0,1,0-1.48,1,1,0,0,1,.61-.31l2-.27a1,1,0,0,0,.79-.57l.9-1.78a1.06,1.06,0,0,1,1.43-.43A1.07,1.07,0,0,1,266,138Z"/><path class="cls-10" d="M216.16,125.82a2.42,2.42,0,1,1-2.4-2.44,2.42,2.42,0,0,1,2.4,2.44Z"/><path class="cls-3" d="M284.9,102.47c0,.14-41.65-.08-93-.5s-93-.88-93-1,41.64.08,93,.5S284.91,102.33,284.9,102.47Z"/><path class="cls-3" d="M284.36,169.09c0,.15-41.66-.08-93-.5s-93-.88-93-1,41.65.08,93,.5S284.36,169,284.36,169.09Z"/><circle class="cls-8" cx="123.49" cy="269.24" r="12.89" transform="translate(-154.21 166.18) rotate(-45)"/><path class="cls-6" d="M200.81,259.42c0,.14-11.95.16-26.7,0s-26.71-.33-26.71-.48,12-.16,26.71,0S200.82,259.28,200.81,259.42Z"/><path class="cls-3" d="M244.4,271.63c0,.14-21.8.08-48.69-.14S147,271,147,270.83s21.8-.08,48.7.14S244.4,271.5,244.4,271.63Z"/><path class="cls-3" d="M244.32,281.26c0,.14-21.8.08-48.69-.14s-48.69-.52-48.68-.66,21.79-.08,48.69.14S244.32,281.11,244.32,281.26Z"/><path class="cls-6" d="M273.06,257.57c0,.15-4.71.22-10.53.18A104.33,104.33,0,0,1,252,257.4c0-.14,4.71-.22,10.53-.17S273.06,257.43,273.06,257.57Z"/><path class="cls-9" d="M264.9,271l.87,1.8a1,1,0,0,0,.78.59l2,.3a1,1,0,0,1,1,1,1,1,0,0,1-.39.75l-1.45,1.39a1.07,1.07,0,0,0-.31.93l.33,2a1.06,1.06,0,0,1-.89,1.21,1,1,0,0,1-.65-.11l-1.76-1a1,1,0,0,0-1,0l-1.78.92a1,1,0,0,1-1.39-.28,1,1,0,0,1-.12-.84l.36-2a1,1,0,0,0-.3-.93l-1.42-1.41a1,1,0,0,1,0-1.48,1,1,0,0,1,.61-.31l2-.27a1,1,0,0,0,.79-.57l.9-1.78a1.06,1.06,0,0,1,1.87.05Z"/><circle class="cls-10" cx="212.66" cy="258.85" r="2.42" transform="translate(-82.68 416.97) rotate(-78.76)"/><path class="cls-3" d="M283.81,235.49c0,.14-41.65-.08-93-.5s-93-.88-93-1,41.64.08,93,.5S283.82,235.35,283.81,235.49Z"/><path class="cls-3" d="M283.27,302.11c0,.15-41-.12-91.59-.6s-91.59-1-91.59-1.12,41,.12,91.6.6S283.27,302,283.27,302.11Z"/><path class="cls-9" d="M135.35,395.85a12.89,12.89,0,1,1-12.79-13A12.89,12.89,0,0,1,135.35,395.85Z"/><path class="cls-6" d="M199.78,385.93c0,.14-12,.16-26.71,0s-26.7-.33-26.7-.48,12-.16,26.71,0S199.78,385.79,199.78,385.93Z"/><path class="cls-3" d="M243.36,398.16c0,.14-21.8.08-48.68-.14S146,397.5,146,397.36s21.8-.08,48.69.14S243.36,398,243.36,398.16Z"/><path class="cls-3" d="M243.28,407.76c0,.15-21.8.09-48.68-.13s-48.69-.52-48.69-.66,21.8-.09,48.69.13S243.29,407.63,243.28,407.76Z"/><path class="cls-6" d="M272,384.08c0,.14-4.71.22-10.52.17s-10.53-.2-10.53-.34,4.72-.22,10.53-.18A104.52,104.52,0,0,1,272,384.08Z"/><path class="cls-10" d="M214,385.35a2.42,2.42,0,1,1-2.4-2.44,2.42,2.42,0,0,1,2.4,2.44Z"/><rect class="cls-4" x="159.09" y="108.93" width="66.62" height="185.45" transform="translate(-10.83 392.39) rotate(-89.53)"/><circle class="cls-9" cx="124.42" cy="201.44" r="12.89"/><path class="cls-6" d="M201.74,191.63c0,.15-12,.17-26.7.05s-26.71-.34-26.71-.48,12-.17,26.71,0S201.74,191.47,201.74,191.63Z"/><path class="cls-3" d="M245.33,203.84c0,.15-21.8.08-48.69-.14S148,203.19,148,203s21.8-.08,48.69.14S245.33,203.7,245.33,203.84Z"/><path class="cls-3" d="M245.25,213.45c0,.14-21.8.08-48.69-.14s-48.69-.51-48.69-.66,21.8-.08,48.7.14S245.25,213.31,245.25,213.45Z"/><path class="cls-6" d="M274,189.77c0,.14-4.72.22-10.53.17a102.62,102.62,0,0,1-10.52-.35c0-.14,4.71-.22,10.53-.17Q268.75,189.33,274,189.77Z"/><path class="cls-6" d="M265.83,203.18a1.93,1.93,0,0,0-.26-.27,1,1,0,0,0-.93-.19.9.9,0,0,0-.53.41c-.13.22-.26.52-.4.81l-.46,1a1.25,1.25,0,0,1-1,.8l-1.29.2-.68.1a.82.82,0,0,0-.49.28.83.83,0,0,0,0,1.09l1.14,1.12.3.29a1.41,1.41,0,0,1,.29.4,1.5,1.5,0,0,1,.07,1q-.15.85-.3,1.74a.78.78,0,0,0,.55,1,.63.63,0,0,0,.19,0,1.77,1.77,0,0,0,.74-.27l.85-.43a5.1,5.1,0,0,1,.92-.42,1.42,1.42,0,0,1,1.06.22l1.6.86a.8.8,0,0,0,1.08-.37l0-.06a1.23,1.23,0,0,0,0-.71,4.52,4.52,0,0,0-.13-.82l-.12-.81a1.29,1.29,0,0,1,.17-.92,4,4,0,0,1,.57-.6l.55-.51.52-.49a.85.85,0,0,0-.14-1.39,7,7,0,0,0-1.1-.24l-1-.18a1.22,1.22,0,0,1-.87-.48,6,6,0,0,1-.35-.72,7.32,7.32,0,0,1-.53-1.34,8.24,8.24,0,0,1,.72,1.25,7,7,0,0,0,.36.66,1,1,0,0,0,.72.34l1,.14a5,5,0,0,1,1.22.25,1.25,1.25,0,0,1,.49,1.7,1.33,1.33,0,0,1-.23.3l-.52.5-.53.53a3,3,0,0,0-.49.51.9.9,0,0,0-.1.6c.05.27.09.54.14.81s.09.54.14.82a1.7,1.7,0,0,1,0,1,1.3,1.3,0,0,1-1.67.77l-.13-.06-1.61-.86a.93.93,0,0,0-.72-.17,7.12,7.12,0,0,0-.79.37l-.84.43-.43.22a1.24,1.24,0,0,1-.57.11,1.31,1.31,0,0,1-1.25-1.38,1.23,1.23,0,0,1,0-.19c.11-.59.22-1.17.32-1.73a1,1,0,0,0,0-.69,2.17,2.17,0,0,0-.49-.56l-1.19-1.32a1.25,1.25,0,0,1,.75-2.08l.69-.09,1.3-.16a.93.93,0,0,0,.77-.59l.49-.94c.16-.29.29-.55.45-.82a1.16,1.16,0,0,1,.69-.47,1.09,1.09,0,0,1,1.05.32C265.81,203,265.84,203.17,265.83,203.18Z"/><path class="cls-10" d="M216,191a2.42,2.42,0,1,1-2.4-2.44A2.42,2.42,0,0,1,216,191Z"/><rect class="cls-4" x="159.23" y="241.74" width="66.62" height="185.45" transform="translate(-143.49 524.25) rotate(-89.53)"/><circle class="cls-8" cx="124.56" cy="334.24" r="12.89" transform="translate(-199.86 185.97) rotate(-45)"/><path class="cls-6" d="M201.88,324.42c0,.14-12,.16-26.7,0s-26.71-.33-26.71-.48,12-.16,26.71,0S201.88,324.28,201.88,324.42Z"/><path class="cls-3" d="M245.47,336.63c0,.14-21.8.08-48.69-.14s-48.69-.52-48.69-.66,21.8-.08,48.69.14S245.47,336.5,245.47,336.63Z"/><path class="cls-3" d="M245.39,346.26c0,.14-21.8.08-48.69-.14s-48.7-.49-48.7-.66,21.8-.08,48.7.14S245.39,346.11,245.39,346.26Z"/><path class="cls-6" d="M274.13,322.57c0,.15-4.72.22-10.53.18a104.52,104.52,0,0,1-10.52-.35c0-.14,4.71-.22,10.53-.17S274.13,322.43,274.13,322.57Z"/><path class="cls-6" d="M266,336a1.65,1.65,0,0,0-.26-.26,1,1,0,0,0-.93-.2.94.94,0,0,0-.53.41c-.13.23-.26.53-.4.82l-.46.95a1.25,1.25,0,0,1-1,.81l-1.29.19-.68.11a.82.82,0,0,0-.69.93.79.79,0,0,0,.21.44l1.14,1.11.3.29a1.46,1.46,0,0,1,.29.41,1.39,1.39,0,0,1,.07,1l-.3,1.74a.78.78,0,0,0,.59.93l.15,0a1.33,1.33,0,0,0,.74-.26l.85-.44a5.1,5.1,0,0,1,.92-.42,1.47,1.47,0,0,1,1.06.23l1.6.86a.8.8,0,0,0,1.08-.37l0-.06a1.23,1.23,0,0,0,0-.71,4.63,4.63,0,0,0-.13-.83l-.12-.8a1.29,1.29,0,0,1,.17-.92,4,4,0,0,1,.57-.6l.55-.51.52-.5a.84.84,0,0,0-.14-1.38,5.28,5.28,0,0,0-1.1-.24l-1-.18a1.21,1.21,0,0,1-.87-.49,5.85,5.85,0,0,1-.35-.71,7.14,7.14,0,0,1-.53-1.35,9.77,9.77,0,0,1,.72,1.26,6.77,6.77,0,0,0,.36.65,1,1,0,0,0,.72.35l1,.14a5.49,5.49,0,0,1,1.14.23,1.26,1.26,0,0,1,.26,2l-.52.5-.53.52a4,4,0,0,0-.49.52.9.9,0,0,0-.1.6c.05.27.09.53.14.8s.09.55.14.83a1.7,1.7,0,0,1,0,1,1.33,1.33,0,0,1-1.71.75l-.1-.05c-.53-.28-1.07-.56-1.61-.86a1,1,0,0,0-.72-.17,7.18,7.18,0,0,0-.79.38l-.84.43-.43.22a1.23,1.23,0,0,1-.57.1,1.32,1.32,0,0,1-1.25-1.38,1.1,1.1,0,0,1,0-.18c.11-.59.22-1.17.32-1.74a1,1,0,0,0,0-.69,2.38,2.38,0,0,0-.49-.56l-1.14-1.15a1.3,1.3,0,0,1,0-1.68,1.36,1.36,0,0,1,.75-.41l.69-.09,1.3-.16a.89.89,0,0,0,.77-.58l.49-.94c.16-.3.29-.56.45-.82a1.17,1.17,0,0,1,.69-.48,1.1,1.1,0,0,1,1,.32C266,335.84,266,336,266,336Z"/><path class="cls-10" d="M216.14,323.84a2.42,2.42,0,1,1-2.4-2.44,2.42,2.42,0,0,1,2.4,2.44Z"/><rect class="cls-10" x="184.27" y="75.78" width="16.18" height="20.04" rx="2.25" transform="translate(104.99 277.45) rotate(-89.53)"/><path class="cls-7" d="M201.35,78.39a4,4,0,0,1-.62.84c-.42.52-1,1.26-1.83,2.17l-2.76,3.17-1.65,1.86c-.29.35-.59.68-.91,1a2,2,0,0,1-2.78-.26l-.89-1-1.67-1.84-2.8-3.13c-.8-.9-1.43-1.63-1.86-2.15a3.87,3.87,0,0,1-.63-.83,7.65,7.65,0,0,1,.78.7l2,2L188.61,84l1.7,1.82.89,1a1.46,1.46,0,0,0,2.05.23l0,0c.27-.24.58-.63.86-.93l1.67-1.84,2.85-3.1a23.14,23.14,0,0,1,2-2A4.15,4.15,0,0,1,201.35,78.39Z"/><path class="cls-7" d="M189.31,85.72a29.14,29.14,0,0,1-3.21,3.63,18.34,18.34,0,0,1-3.6,3.27A30,30,0,0,1,185.72,89,18.9,18.9,0,0,1,189.31,85.72Z"/><path class="cls-7" d="M202.32,93a25.1,25.1,0,0,1-3.71-3.65,26.64,26.64,0,0,1-3.34-4A25.67,25.67,0,0,1,199,89,26.58,26.58,0,0,1,202.32,93Z"/><path class="cls-6" d="M127.77,84.27c0,.09-3.42.16-7.64.16s-7.64-.07-7.64-.16,3.42-.16,7.64-.16S127.77,84.18,127.77,84.27Z"/><path class="cls-6" d="M127.77,88.18c0,.09-3.42.16-7.64.16s-7.64-.07-7.64-.16,3.42-.16,7.64-.16S127.77,88.09,127.77,88.18Z"/><path class="cls-6" d="M127.77,92.09c0,.09-3.42.17-7.64.17s-7.64-.08-7.64-.16,3.42-.17,7.64-.17S127.77,92,127.77,92.09Z"/><path class="cls-6" d="M271.18,86.76a8.3,8.3,0,0,0-.22-1,4.17,4.17,0,0,0-1.52-2.21,4,4,0,1,0-.05,6.41A4.26,4.26,0,0,0,271,87.77c.18-.63.18-1,.23-1a1.22,1.22,0,0,1,0,.27,2.91,2.91,0,0,1-.08.78,4.22,4.22,0,0,1-1.54,2.41,4.4,4.4,0,1,1,.06-7,4.15,4.15,0,0,1,1.49,2.44,3,3,0,0,1,.07.78A.81.81,0,0,1,271.18,86.76Z"/><path class="cls-6" d="M273.43,94a8.16,8.16,0,0,1-2-1.89,8.32,8.32,0,0,1-1.69-2.21,8.36,8.36,0,0,1,2,1.89A8.07,8.07,0,0,1,273.43,94Z"/></g><g id="freepik--Character--inject-11"><path class="cls-11" d="M261.81,295.63l-.14,53.74-23.75-4.88-20-4.18s27.38,54,57.16,54,33.63-44.93,33.63-44.93l1.77-53.75Z"/><path class="cls-6" d="M385.18,157c-2.18,1.24-5.18-.37-6.18-2.69s-.54-5,.22-7.44,1.82-4.78,2-7.31A10.79,10.79,0,0,0,374,129c4.3-3.41,4.65-10.72.7-14.53-1.85-1.78-4.31-2.75-6.46-4.15a22,22,0,0,1-3.4-2.77,14,14,0,0,0,5.86.18,9.49,9.49,0,0,0,6.88-6,8.59,8.59,0,0,0-2.08-8.81,7.89,7.89,0,0,0-8.86-1.32c-2.78,1.47-4.3,4.49-5.65,7.33l-1.26,2.63c-3.91-5.18-7.59-10.53-13.62-12.35-5.47-1.65-11.35.19-17-.22-4.15-.31-8.13-1.8-12.27-2.26s-8.85.43-11.29,3.8c-1.44,2-1.89,4.54-3.34,6.51-3,4.06-9.46,4.61-11.92,9-2,3.58-.46,8.1-1.32,12.11-.93,4.36-4.53,7.55-7.47,10.9s-5.51,8-3.86,12.09c1.46,3.65,5.71,5.61,7.09,9.28,1,2.68.28,5.65.23,8.51s1.09,6.26,3.88,6.91l31.73,8.38c10.93,4.44,22.2,9,34,8.94s24.39-5.68,29-16.52a6.74,6.74,0,0,1-4.55-2A11.37,11.37,0,0,0,385.18,157Z"/><path class="cls-6" d="M359.17,167c2.62-8,5.2-16.15,6.39-24.53s.94-17.12-2-25c-.44-1.2-4.25-9.27-5.53-9.14-.91.09,1.43,7.61,1,8.41-4.4,7.56-5.6,16.65-4.89,25.38A114.58,114.58,0,0,0,359.21,167"/><path class="cls-11" d="M331.15,237.29c13.12-.28,28-29,28-29l.85-73.66c.68-21.21-11.09-39.29-32.31-39.39l-2,.1a38,38,0,0,0-35.91,36.86c-.49,18.39-.81,38.72-.16,48.54,1.34,20.32,21.85,22.39,21.85,22.39s.12,4.72.18,10.7c.14,13.42,14.19,23.88,19.45,23.43Z"/><path class="cls-12" d="M311.52,203.16s12.86.07,26.06-9.25c0,0-5.66,15.14-26.05,14.4Z"/><path class="cls-6" d="M298.61,148.19a2.91,2.91,0,0,0,3,2.78,2.78,2.78,0,0,0,2.85-2.71v-.06a2.91,2.91,0,0,0-3-2.79,2.79,2.79,0,0,0-2.85,2.71Z"/><path class="cls-6" d="M294.63,140.44c.38.36,2.49-1.39,5.62-1.55s5.5,1.29,5.82.88c.15-.17-.25-.84-1.29-1.51a8,8,0,0,0-4.68-1.17,7.7,7.7,0,0,0-4.45,1.7C294.73,139.63,294.44,140.28,294.63,140.44Z"/><path class="cls-6" d="M326.76,147.44a2.91,2.91,0,0,0,3,2.78,2.78,2.78,0,0,0,2.85-2.71v-.07a2.92,2.92,0,0,0-2.95-2.78,2.79,2.79,0,0,0-2.9,2.68Z"/><path class="cls-6" d="M325.31,140.06c.38.36,2.5-1.38,5.62-1.54s5.5,1.28,5.82.88c.16-.18-.24-.84-1.29-1.52a8,8,0,0,0-4.68-1.17,7.7,7.7,0,0,0-4.45,1.7C325.42,139.2,325.13,139.9,325.31,140.06Z"/><path class="cls-6" d="M315.39,164.68c0-.18-2-.41-5.13-.64-.8,0-1.56-.16-1.73-.7a4,4,0,0,1,.41-2.39c.67-2,1.33-4.07,2-6.21,2.82-8.82,4.81-16.07,4.45-16.18s-2.93,7-5.74,15.79c-.67,2.17-1.32,4.25-1.93,6.23a4.65,4.65,0,0,0-.25,3.16,2,2,0,0,0,1.38,1.09,5.18,5.18,0,0,0,1.36.12C313.42,165,315.38,164.86,315.39,164.68Z"/><path class="cls-6" d="M324.7,166.35c-.51,0-.33,3.39-3.11,6s-6.4,2.39-6.4,2.86c0,.22.84.62,2.36.58a8.46,8.46,0,0,0,5.36-2.2,7.36,7.36,0,0,0,2.39-5C325.36,167.14,324.93,166.32,324.7,166.35Z"/><path class="cls-6" d="M324.8,127.37c.36.84,3.46.27,7.15.51s6.71,1.09,7.15.3c.2-.38-.36-1.15-1.6-1.91a12.48,12.48,0,0,0-10.89-.61C325.29,126.27,324.65,127,324.8,127.37Z"/><path class="cls-6" d="M295.36,130c.59.68,2.71-.17,5.29-.34s4.81.22,5.27-.55c.21-.37-.18-1.07-1.17-1.69a7.69,7.69,0,0,0-8.51.72C295.36,128.9,295.1,129.63,295.36,130Z"/><path class="cls-11" d="M359.15,149.81c.34-.17,13.75-4.88,14.06,9s-13.75,11.35-13.78,11S359.15,149.81,359.15,149.81Z"/><path class="cls-12" d="M363.57,164.45c.06,0,.25.16.66.34a2.37,2.37,0,0,0,1.81,0c1.46-.57,2.65-2.94,2.67-5.45a8.3,8.3,0,0,0-.76-3.46,2.82,2.82,0,0,0-1.86-1.82,1.24,1.24,0,0,0-1.42.7c-.18.39-.08.67-.16.69s-.3-.23-.2-.8a1.58,1.58,0,0,1,.53-.89,1.77,1.77,0,0,1,1.33-.38,3.42,3.42,0,0,1,2.58,2.1,8.3,8.3,0,0,1,.93,3.87c0,2.81-1.41,5.46-3.41,6.09a2.6,2.6,0,0,1-2.23-.32C363.6,164.78,363.52,164.47,363.57,164.45Z"/><path class="cls-6" d="M298.55,109c-2.27-1.21,4.4-8.6,9.91-11.19,8.32-3.9,21.08-6.4,28.82-4.31,9.33,2.51,17.11,7,21.89,15.44s6.66,18.23,6.51,27.89c-.05,2.95-.31,6-1.86,8.54-1.9,3.1-5.61,5.09-5.39,9.34A5.83,5.83,0,0,1,357,159c-2.52,2.74-5.67.23-7.13-2.3-3.14-5.42-3.56-11.93-3.91-18.17-.25-4.44-.49-9,.71-13.26.65-2.33,1.72-4.54,2.24-6.9s.42-5-1.08-7a8.69,8.69,0,0,0-1.14-1.13,14.58,14.58,0,0,0-14.45-2.56c-7.81,2.88-21.15,7.2-24.68,4.58-5.08-3.77-6.32-6.25-6.32-6.25Z"/><path class="cls-6" d="M336.53,91.63c-7.68-2.46-16.4-2.21-23.51,1.6-3.78,2-7.18,5.22-8.28,9.35s.72,9.2,4.7,10.76l.28.17c6,1.92,9.82,1.08,15.72-1.05,5-1.79,9.36-4.92,14.33-6.69a28.43,28.43,0,0,1,16.56-.69C350.93,99.1,344.22,94.12,336.53,91.63Z"/><path class="cls-5" d="M363,105.43c-.12.1-1.24-1.23-3.5-2.8a20.25,20.25,0,0,0-4.23-2.26,13.07,13.07,0,0,0-5.66-1,19,19,0,0,0-9.71,4c-2.16,1.71-3.16,3.15-3.29,3s.15-.43.61-1.07a15.15,15.15,0,0,1,2.25-2.48,18.14,18.14,0,0,1,10.06-4.43,13.27,13.27,0,0,1,6.06,1.08,18.76,18.76,0,0,1,4.3,2.53C362.14,103.86,363.1,105.37,363,105.43Z"/><path class="cls-5" d="M364.41,110.36a11.8,11.8,0,0,1-1.06,4,29,29,0,0,1-13,14.65,11.5,11.5,0,0,1-3.82,1.52c-.17-.27,5.85-2.55,10.9-8.33S364.12,110.23,364.41,110.36Z"/><path class="cls-5" d="M370.08,112.63a4.42,4.42,0,0,1,.05,1.58,23.72,23.72,0,0,1-.6,4.28,29.13,29.13,0,0,1-18.1,20.77,24.06,24.06,0,0,1-4.16,1.18,4.44,4.44,0,0,1-1.58.16c0-.16,2.19-.54,5.49-2a30.64,30.64,0,0,0,17.71-20.32C369.83,114.86,369.91,112.63,370.08,112.63Z"/><path class="cls-5" d="M320.58,90.38a39,39,0,0,1-3.69,1.39,30.26,30.26,0,0,0-14.29,11.78,37.25,37.25,0,0,1-2.07,3.35,10.8,10.8,0,0,1,1.5-3.69,26.7,26.7,0,0,1,6.2-7.39,26.24,26.24,0,0,1,8.44-4.66A11.39,11.39,0,0,1,320.58,90.38Z"/><path class="cls-5" d="M374.45,92.13c.23,0-.38,4-3.53,7.75s-7,5.05-7,4.82,3.37-1.86,6.31-5.42S374.17,92,374.45,92.13Z"/><path class="cls-11" d="M226.46,340.76l8.26-5.07a9.07,9.07,0,0,1,4.65-1.31h16l16.52,15.05,4.93,2.46-1.84,26-10.74-1.32s-22.93,1-25.15-.49-5.43-6.17-5.43-6.17-12.57-4.07-13.8-5.17c-4.67-4.19-2.79-5.19-2.79-5.19l-2.15-1c-.4.76-3.53-4.34-3.2-6.9.19-1.49-.25-1.48-.25-1.48a8.22,8.22,0,0,1-4-5.69c-.23-1.52,6-.43,6-.43l15.53.21Z"/><path class="cls-5" d="M240.27,343.91,225.66,324a5.68,5.68,0,0,0-4.6-2.33H192.18a2.1,2.1,0,0,0-2.1,2.1h0a2.15,2.15,0,0,0,.51,1.37l16.55,19.2h0Z"/><path class="cls-13" d="M233.19,352.06a12.37,12.37,0,0,1-3.26.43,55,55,0,0,1-15.76-1.36,12.36,12.36,0,0,1-3.14-1,20.77,20.77,0,0,1,3.24.49,77.2,77.2,0,0,0,7.79,1c3.06.22,5.84.32,7.85.31A18.92,18.92,0,0,1,233.19,352.06Z"/><path class="cls-13" d="M237.34,360.77a12.37,12.37,0,0,1-3.26.43,55.06,55.06,0,0,1-15.77-1.36,12.42,12.42,0,0,1-3.13-1,20.77,20.77,0,0,1,3.24.49,77.2,77.2,0,0,0,7.79,1c3.06.22,5.84.32,7.85.31A18.92,18.92,0,0,1,237.34,360.77Z"/><path class="cls-13" d="M207.51,344.48a13.91,13.91,0,0,0,.48,1.82,6.86,6.86,0,0,0,3.54,3.7l.11.05v.12a10.91,10.91,0,0,0,1.13,5.08,9.57,9.57,0,0,0,4.51,4.42l.27.12-.13.25a2.33,2.33,0,0,0,0,2,5.08,5.08,0,0,0,1.42,1.73,18.35,18.35,0,0,0,4.32,2.48,62.24,62.24,0,0,0,10.59,3.32h.14l.07.12a19.42,19.42,0,0,0,3.25,3.64,10,10,0,0,0,4.24,2.51,13.28,13.28,0,0,0,3.77.38l3.8.1,7.33.2,13.2.37h.05l15.73,3.21,4.37.94,1.14.27a1.27,1.27,0,0,1,.39.12,1.34,1.34,0,0,1-.4,0l-1.16-.18-4.41-.78-15.78-3h0l-13.2-.28L249,377l-3.81-.09a14.52,14.52,0,0,1-3.94-.42,10.71,10.71,0,0,1-4.52-2.66,19.83,19.83,0,0,1-3.35-3.79l.21.15a59.9,59.9,0,0,1-10.69-3.41,18.93,18.93,0,0,1-4.45-2.6,5.68,5.68,0,0,1-1.57-2,2.82,2.82,0,0,1,.06-2.44l.14.37a10.05,10.05,0,0,1-4.72-4.72,11.26,11.26,0,0,1-1.07-5.3l.11.17a6.83,6.83,0,0,1-3.58-4A5,5,0,0,1,207.51,344.48Z"/><path class="cls-13" d="M242.07,368.42c.08.16-1.86,1.15-4.49,1.5s-4.75-.09-4.72-.26,2.11-.09,4.63-.44S242,368.23,242.07,368.42Z"/><path class="cls-13" d="M249.49,343.88c0,.19-3.17.46-7.11.61s-7.13.1-7.13-.1,3.17-.46,7.11-.61S249.49,343.68,249.49,343.88Z"/><path class="cls-13" d="M276.51,349.76a1.93,1.93,0,0,1-1,.4,4.55,4.55,0,0,1-2.88-.64,21.92,21.92,0,0,1-3.37-2.7l-3.94-3.45-7.2-6.19a23.68,23.68,0,0,1-2.92-2.65,20.18,20.18,0,0,1,3.23,2.27c1.93,1.48,4.55,3.6,7.36,6,1.4,1.22,2.72,2.4,3.9,3.49a25.36,25.36,0,0,0,3.19,2.76,4.72,4.72,0,0,0,2.6.8C276.14,349.86,276.49,349.7,276.51,349.76Z"/><path class="cls-6" d="M237.19,344.34a2.66,2.66,0,0,1-.39-.43l-1-1.28-3.8-4.79-5.48-7.14-3.22-4.22a5,5,0,0,0-2.16-1.51,5.06,5.06,0,0,0-1.34-.27h-1.44l-20-.08-6.07-.08h-1.65a2.28,2.28,0,0,1-.58-.05,2.28,2.28,0,0,1,.58-.05l1.65-.05,6.07-.09,20-.07h1.48a6.09,6.09,0,0,1,1.47.3,5.49,5.49,0,0,1,2.38,1.68l3.21,4.25,5.39,7.21c1.49,2,2.71,3.67,3.6,4.89.39.54.7,1,1,1.34A2.14,2.14,0,0,1,237.19,344.34Z"/><path class="cls-4" d="M205.78,327.52a1.19,1.19,0,1,1-.2,1.69,1.21,1.21,0,0,1,.16-1.65"/><path class="cls-8" d="M360.58,202.5l40.68,23.91,7.48,132,9.72,74.68H272.26s1.61-90.89,2.11-118.38c.36-19.27-.16-56.62,6.36-79.59,2.78-9.79,30-22.44,30-22.44C325.64,225.85,342.31,221.92,360.58,202.5Z"/><path class="cls-7" d="M414.16,400.09c0,.14-31.56.26-70.5.26s-70.5-.12-70.5-.26,31.56-.26,70.5-.26S414.16,399.94,414.16,400.09Z"/><g class="cls-14"><path d="M273.07,377.63c11.32,9.49,28.91,14.63,43.39,17.56s29.27,4,43.79,6.66c10.15,1.89,20.8,4.56,30.59,1.26A27,27,0,0,0,408.7,380a2.46,2.46,0,0,0-.44-2,2.65,2.65,0,0,0-2.07-.5c-43.71,1.94-90,1.67-133.12.06"/></g><path class="cls-11" d="M265.33,350.27H367.49l.5-53.83,47.14-6.08s.21,54.67.21,72.6c0,21.52-18.6,36.48-34.22,34.18s-115.79-21-115.79-21Z"/><path class="cls-8" d="M418.4,301.54l-54.94,5.71V242.79s5.4-21.78,24.38-20.87S418,243.36,418.4,262.19,418.4,301.54,418.4,301.54Z"/><path class="cls-8" d="M286.54,227.56s-17.61,11.59-22.33,24.38c-4.95,13.41-11.9,56.85-11.9,56.85H277Z"/><path class="cls-6" d="M363,245.35a13.18,13.18,0,0,1,0,2.35c-.05,1.63-.12,3.79-.2,6.41-.16,5.4-.33,12.87-.31,21.12s.24,15.72.45,21.12c.1,2.62.18,4.78.24,6.41a15.36,15.36,0,0,1,0,2.35,14.11,14.11,0,0,1-.28-2.34c-.14-1.5-.31-3.69-.47-6.39-.33-5.41-.62-12.88-.65-21.15s.22-15.74.52-21.15c.14-2.7.29-4.88.42-6.39A15.41,15.41,0,0,1,363,245.35Z"/><path class="cls-6" d="M390.66,223c0,.14-1.84-.35-4.82-.3a21.43,21.43,0,0,0-18.78,11.52c-1.39,2.63-1.78,4.47-1.91,4.44a4.43,4.43,0,0,1,.22-1.3,17.64,17.64,0,0,1,1.25-3.36,20.78,20.78,0,0,1,19.22-11.8,18.6,18.6,0,0,1,3.57.41A4.54,4.54,0,0,1,390.66,223Z"/><path class="cls-6" d="M275.23,257.92a3.61,3.61,0,0,1,.07.73c0,.56,0,1.25.06,2.09,0,1.81.06,4.43.06,7.67,0,6.48-.1,15.43-.29,25.31s-.38,18.73-.51,25.3c-.06,3.16-.11,5.76-.15,7.67,0,.84-.06,1.53-.08,2.09a2.48,2.48,0,0,1-.07.72,2.89,2.89,0,0,1-.07-.72c0-.56,0-1.25-.06-2.09,0-1.81-.06-4.43-.06-7.67,0-6.48.1-15.43.29-25.32s.37-18.73.5-25.29c.07-3.17.12-5.76.16-7.67,0-.84.06-1.53.07-2.09A2.6,2.6,0,0,1,275.23,257.92Z"/><path class="cls-7" d="M274.6,279.51a66.64,66.64,0,0,1-8.36.19,66.71,66.71,0,0,1-8.36-.34,68.59,68.59,0,0,1,8.36-.19A66.71,66.71,0,0,1,274.6,279.51Z"/><path class="cls-7" d="M362.06,264.63c0,.14-19,.26-42.35.26s-42.37-.12-42.37-.26,19-.26,42.37-.26S362.06,264.46,362.06,264.63Z"/><path class="cls-7" d="M417.21,255.81a2.62,2.62,0,0,1-.56,0l-1.58-.13-5.8-.5c-4.91-.41-11.69-.86-19.19-1.07s-14.3-.12-19.22,0l-5.83.18h-1.58a1.75,1.75,0,0,1-.56,0,2.52,2.52,0,0,1,.55-.08l1.58-.14c1.38-.11,3.36-.23,5.83-.35,4.92-.23,11.72-.36,19.24-.16s14.31.72,19.21,1.22c2.45.25,4.43.48,5.79.67l1.57.22A2.12,2.12,0,0,1,417.21,255.81Z"/><path class="cls-7" d="M417.73,294c0,.15-12.41,0-27.7-.36s-27.71-.75-27.7-.89,12.4,0,27.71.37S417.73,293.86,417.73,294Z"/><path class="cls-7" d="M367.82,232.52c0,.15-19.58.26-43.73.26s-43.73-.11-43.73-.26,19.58-.26,43.73-.26S367.82,232.38,367.82,232.52Z"/><path class="cls-7" d="M362.34,305.18c0,.14-19.64.26-43.87.26s-43.87-.12-43.87-.26,19.64-.26,43.87-.26S362.34,305,362.34,305.18Z"/><path class="cls-7" d="M368.64,337.26c0,.14-21.36.26-47.7.26s-47.71-.12-47.71-.26,21.36-.26,47.71-.26S368.64,337.11,368.64,337.26Z"/><path class="cls-7" d="M416.93,429.76c0,.14-32.21.26-71.93.26s-71.93-.12-71.93-.26,32.2-.26,71.93-.26S416.93,429.63,416.93,429.76Z"/><g class="cls-14"><path d="M362.79,307.86c-.64-12.74-.18-24.66-.83-37.39a236.09,236.09,0,0,0-6.1,57c.07,4.55.29,9.18,1.76,13.49s5.54,8,9.7,9.84l.4-43.49C365.85,307.45,364.67,307.77,362.79,307.86Z"/></g></g><g id="freepik--Table--inject-11"><path class="cls-6" d="M445.08,433.29c0,.14-99,.26-221.07.26s-221.09-.12-221.09-.26,99-.26,221.09-.26S445.08,433.14,445.08,433.29Z"/></g></svg>