<svg id="Calque_1" data-name="Calque 1" xmlns="http://www.w3.org/2000/svg" viewBox="0 0 628.41 427.84"><defs><style>.cls-1,.cls-7{fill:none;stroke-miterlimit:10;}.cls-1{stroke:#e0e0e0;}.cls-2{fill:#e0e0e0;}.cls-3{fill:#fff;}.cls-4{fill:#fafafa;}.cls-5{fill:#263238;}.cls-6{fill:#ebebeb;}.cls-7{stroke:#000;}.cls-8{fill:#030067;}.cls-9{fill:#89bcdb;}.cls-10{fill:#1d1d1b;}.cls-11{fill:#9e6141;}.cls-12{fill:#7a4224;}.cls-13{fill:#455a64;}.cls-14{fill:#18315b;}.cls-15{fill:#006bde;}.cls-16{opacity:0.1;}.cls-17{fill:#ffbe9d;}.cls-18{fill:#000b29;}.cls-19{fill:#aa6550;}.cls-20{fill:#fd425f;}.cls-21{opacity:0.3;}.cls-22{fill:#8f5039;}.cls-23{fill:#1479b7;}.cls-24{fill:#a36853;}.cls-25{opacity:0.2;}.cls-26{fill:#ed9482;}</style></defs><g id="freepik--background-complete--inject-34"><path class="cls-1" d="M549,306.14c0-1.59-.07-117.47-.19-304.89l.19.2L1.21,1.51h0l.26-.26V306.14l-.24-.24,547.84.24-547.84.24H1V1h.3l547.8.06h.2v.2C549.07,188.71,549.07,304.55,549,306.14Z"/><rect class="cls-2" x="1.17" y="1.25" width="547.85" height="23.35"/><path class="cls-3" d="M19.07,12.23A3.77,3.77,0,1,1,15.3,8.46h0a3.77,3.77,0,0,1,3.76,3.76Z"/><path class="cls-3" d="M30.71,12.23a3.77,3.77,0,1,1-3.77-3.77h0a3.77,3.77,0,0,1,3.76,3.76Z"/><path class="cls-3" d="M42.37,12.23A3.77,3.77,0,1,1,38.6,8.46h0a3.77,3.77,0,0,1,3.77,3.75Z"/></g><g id="freepik--Page--inject-34"><rect class="cls-4" x="42.24" y="47.83" width="554.08" height="369.38"/><rect x="42.24" y="47.83" width="554.08" height="23.61"/><path class="cls-5" d="M596.32,71.44c0-.48,0-7.45-.07-23.61l.07.07-554,.19h0l.26-.26V71.44l-.26-.26,554.08.26-554.16.27H42V47.57h.29l554.05.19h.07v.07C596.34,64,596.32,71,596.32,71.44Z"/><path class="cls-3" d="M60.34,58.93a3.81,3.81,0,1,1-3.81-3.81h0A3.82,3.82,0,0,1,60.34,58.93Z"/><path class="cls-3" d="M72.12,58.93a3.81,3.81,0,1,1-3.81-3.81h0a3.8,3.8,0,0,1,3.81,3.79Z"/><path class="cls-3" d="M83.91,58.93a3.81,3.81,0,1,1-3.81-3.81h0A3.82,3.82,0,0,1,83.91,58.93Z"/><path class="cls-6" d="M532.33,417.18c-21.38-22.47-52.77-33.47-83.82-33.25-22.68.15-46.34,6.92-67.41-1.44-19.51-7.74-31.89-26.53-47.06-41a128.56,128.56,0,0,0-87.36-35.14c-21.82-.07-45.84,4.94-63.84-7.4-12.14-8.33-18.35-22.68-26.88-34.69-25-35.21-73.13-49.89-113.41-34.33v187Z"/><path class="cls-7" d="M596.32,417.21c0-1.7-.08-144.19-.21-369.38l.21.21h-554l.26-.26V417.16l-.24-.24,554.08.24-554.08.24H42.1V47.52H596.62v.21C596.4,273,596.32,415.51,596.32,417.21Z"/><path class="cls-8" d="M111.65,128.63c0,.37-2.72.68-6.09.68s-6.09-.31-6.09-.68,2.73-.67,6.09-.67S111.65,128.26,111.65,128.63Z"/><path class="cls-8" d="M118.12,112.07c.37,0,.67,2.76.67,6.18s-.3,6.18-.67,6.18-.67-2.77-.67-6.18S117.75,112.07,118.12,112.07Z"/><path class="cls-8" d="M125,128.24c0-.38,2.72-.68,6.08-.68s6.09.3,6.09.68-2.72.67-6.09.67S125,128.61,125,128.24Z"/><path class="cls-8" d="M118.54,144.8c-.37,0-.67-2.77-.67-6.18s.3-6.18.67-6.18.67,2.77.67,6.18S118.91,144.8,118.54,144.8Z"/><path class="cls-8" d="M128.38,137.71c-.28.23-1.48-.73-2.68-2.17s-1.93-2.78-1.65-3,1.49.73,2.68,2.16S128.67,137.46,128.38,137.71Z"/><path class="cls-8" d="M127.81,118.91c.27.26-.53,1.49-1.77,2.74s-2.46,2.06-2.72,1.8.53-1.49,1.77-2.75S127.55,118.65,127.81,118.91Z"/><path class="cls-8" d="M113.85,123.71c-.23.28-1.38-.28-2.57-1.27s-1.94-2-1.71-2.3,1.39.28,2.58,1.27S114.07,123.41,113.85,123.71Z"/><path class="cls-8" d="M113.31,132c.27.26-.42,1.46-1.55,2.7s-2.26,2-2.53,1.78.41-1.45,1.54-2.69S113.07,131.71,113.31,132Z"/><path class="cls-8" d="M455.25,96.58c0,.21-1.55.38-3.46.38s-3.46-.17-3.46-.38,1.55-.38,3.46-.38S455.25,96.37,455.25,96.58Z"/><path class="cls-8" d="M458.92,87.18c.21,0,.38,1.57.38,3.5s-.17,3.51-.38,3.51-.38-1.57-.38-3.51S458.71,87.18,458.92,87.18Z"/><path class="cls-8" d="M462.83,96.35c0-.21,1.55-.38,3.46-.38s3.45.17,3.45.38-1.54.39-3.45.39S462.83,96.57,462.83,96.35Z"/><path class="cls-8" d="M459.16,105.76c-.21,0-.38-1.57-.38-3.51s.17-3.51.38-3.51.38,1.57.38,3.51S459.37,105.76,459.16,105.76Z"/><path class="cls-8" d="M464.75,101.71c-.17.13-.85-.42-1.53-1.23s-1.09-1.58-.93-1.72.84.42,1.52,1.23S464.91,101.59,464.75,101.71Z"/><path class="cls-8" d="M464.42,91.06c.15.15-.3.85-1,1.56s-1.4,1.16-1.55,1,.3-.84,1-1.55S464.27,90.91,464.42,91.06Z"/><path class="cls-8" d="M456.5,93.78c-.14.16-.79-.16-1.46-.72s-1.11-1.14-1-1.3.79.15,1.46.71S456.63,93.62,456.5,93.78Z"/><path class="cls-8" d="M456.19,98.48c.15.14-.24.82-.88,1.53s-1.28,1.15-1.44,1,.24-.83.88-1.53S456.07,98.34,456.19,98.48Z"/><path class="cls-8" d="M298.2,175.24a12.15,12.15,0,0,1-5.3,0A11.85,11.85,0,0,1,298.2,175.24Z"/><path class="cls-8" d="M301.07,168a12.79,12.79,0,0,1,0,5.37A12.17,12.17,0,0,1,301.07,168Z"/><path class="cls-8" d="M304,175.06a12.46,12.46,0,0,1,5.3,0A11.85,11.85,0,0,1,304,175.06Z"/><path class="cls-8" d="M301.2,182.27a12.52,12.52,0,0,1,0-5.38A12.84,12.84,0,0,1,301.2,182.27Z"/><path class="cls-8" d="M305.48,179.18c-.12.1-.64-.32-1.16-.94s-.85-1.21-.72-1.32.65.32,1.17.94S305.61,179.08,305.48,179.18Z"/><path class="cls-8" d="M305.24,171c.11.12-.23.65-.77,1.2s-1.08.89-1.19.78.23-.65.77-1.19S305.12,170.89,305.24,171Z"/><path class="cls-8" d="M299.16,173.09c-.1.12-.6-.12-1.12-.55s-.85-.88-.74-1,.6.12,1.12.55S299.26,173,299.16,173.09Z"/><path class="cls-8" d="M298.92,176.71c.12.11-.18.63-.67,1.17s-1,.89-1.1.78.18-.63.67-1.17S298.8,176.58,298.92,176.71Z"/><path class="cls-9" d="M439,186.45c0,.21-1.55.38-3.46.38s-3.46-.12-3.46-.38,1.54-.39,3.45-.39S439,186.24,439,186.45Z"/><path class="cls-9" d="M442.66,177c.21,0,.38,1.57.38,3.51s-.17,3.51-.38,3.51-.38-1.57-.38-3.51S442.45,177,442.66,177Z"/><path class="cls-9" d="M446.57,186.22c0-.21,1.55-.38,3.46-.38s3.45.17,3.45.38-1.54.38-3.45.38S446.57,186.43,446.57,186.22Z"/><path class="cls-9" d="M442.9,195.63c-.21,0-.38-1.58-.38-3.51s.17-3.51.38-3.51.38,1.57.38,3.51A9.28,9.28,0,0,1,442.9,195.63Z"/><path class="cls-9" d="M448.49,191.59c-.17.14-.85-.41-1.53-1.22s-1.09-1.59-.93-1.72.84.41,1.52,1.22S448.65,191.46,448.49,191.59Z"/><path class="cls-9" d="M448.16,180.93c.15.15-.3.84-1,1.55s-1.4,1.17-1.55,1,.3-.84,1-1.56S448,180.78,448.16,180.93Z"/><path class="cls-9" d="M440.24,183.64c-.14.17-.79-.15-1.46-.71s-1.11-1.15-1-1.31.79.16,1.46.72S440.37,183.48,440.24,183.64Z"/><path class="cls-9" d="M439.93,188.34c.15.15-.24.83-.88,1.53s-1.28,1.16-1.44,1,.24-.83.88-1.53S439.77,188.2,439.93,188.34Z"/><path class="cls-9" d="M256.75,97.19l.45,1.08a7.68,7.68,0,0,0,4.18,4.14l1.18.48-1.13.45a7.64,7.64,0,0,0-4.21,4.23l-.32.78-.48-1a7.62,7.62,0,0,0-4.27-3.87l-1-.38,1.34-.64a7.65,7.65,0,0,0,3.72-4Z"/><path class="cls-9" d="M77.12,178.11l.3.72a5,5,0,0,0,2.78,2.75l.78.32-.75.3a5.08,5.08,0,0,0-2.8,2.81l-.21.52-.32-.65a5.12,5.12,0,0,0-2.83-2.58l-.68-.24.89-.43A5.21,5.21,0,0,0,76.75,179Z"/><path class="cls-9" d="M523.67,108.35l.29.72a5.08,5.08,0,0,0,2.78,2.76l.78.31-.74.31a5.11,5.11,0,0,0-2.81,2.8l-.21.53-.31-.66a5.15,5.15,0,0,0-2.84-2.57l-.68-.25.89-.43a5,5,0,0,0,2.47-2.62Z"/><path class="cls-9" d="M525,138.71l.45,1.08a7.63,7.63,0,0,0,4.18,4.15l1.18.47-1.13.46a7.67,7.67,0,0,0-4.22,4.22l-.31.79-.48-1A7.62,7.62,0,0,0,520.4,145l-1-.37,1.34-.65a7.61,7.61,0,0,0,3.72-3.94Z"/><path class="cls-9" d="M340.23,90.64l.21.51a3.59,3.59,0,0,0,2,1.94l.55.23-.53.21a3.57,3.57,0,0,0-2,2l-.15.37-.23-.46a3.58,3.58,0,0,0-2-1.82l-.48-.17.63-.31A3.59,3.59,0,0,0,340,91.29Z"/><path class="cls-9" d="M200.83,173.54l.27.65a4.58,4.58,0,0,0,2.52,2.5l.71.29-.68.27a4.58,4.58,0,0,0-2.54,2.55l-.19.48-.29-.6a4.65,4.65,0,0,0-2.58-2.33l-.62-.23.81-.39a4.66,4.66,0,0,0,2.25-2.38Z"/></g><g id="freepik--character-1--inject-34"><path class="cls-10" d="M158.23,191.78c-.17,3.21-4.35,7.49-3.06,10.43,2.38,5.42,1,11.91-2.08,17s-7.69,9-12.22,12.78a102.34,102.34,0,0,0-2.05-23.55c-.5-2.42-1.32-5.12-3.53-6.22-2.87-1.42-6.51.63-9.45-.63-3.13-1.36-3.76-5.64-6.4-7.8-2.39-1.95-5.9-1.74-8.83-.76s-5.62,2.63-8.63,3.3-6.64.07-8.31-2.53c-1-1.6-.29-.62-1.27-2.25,0,0-5.87.2-7.89-6.63,0,0-2.76-7.59,3.35-10.94,0,0,1.39-13.72,15.18-7.55,4,1.78,8.66-3.94,12.53-2,3.22,1.63,4.17,6.11,7.39,7.75,3.7,1.88,8-.92,12.14-1.09a10,10,0,0,1,10,10s.65-2.74,5.14-1.54S158.55,185.52,158.23,191.78Z"/><path class="cls-11" d="M152.38,213.86a9.77,9.77,0,0,0-.84-4.52c-.58-1.17-2.75-3.83-5.13-4l.35-14.13a5.64,5.64,0,0,0-5-5.7l-27.69-2.92a16.87,16.87,0,0,0-18.55,15c0,.23,0,.47-.06.71-.67,10.65-1.07,23.68.19,31.62,2.54,16,14.78,18,14.78,18l-.3,11.16c-.47,11.89,8.43,19.05,17.61,19.05s17.66-7.93,17.39-19.7l.9-36a6.27,6.27,0,0,0,4.05-2A10.16,10.16,0,0,0,152.38,213.86Z"/><path class="cls-5" d="M101.6,207a2.05,2.05,0,0,0,2,2.07,2,2,0,1,0,.18-3.92h-.07A2,2,0,0,0,101.6,207Z"/><path class="cls-5" d="M98.24,205.09c.25.27,1.8-.88,4-.88s3.82,1.11,4.06.84-.15-.6-.85-1.11a5.64,5.64,0,0,0-3.25-1,5.42,5.42,0,0,0-3.19,1C98.34,204.49,98.07,205,98.24,205.09Z"/><path class="cls-5" d="M122.88,207.39a2,2,0,0,0,2,2.07,2,2,0,0,0,2.11-1.85,2.05,2.05,0,0,0-2-2.07A2,2,0,0,0,122.88,207.39Z"/><path class="cls-5" d="M119.91,205.5c.25.27,1.8-.88,4-.87s3.82,1.1,4.06.83-.14-.6-.85-1.11a5.64,5.64,0,0,0-3.25-1,5.42,5.42,0,0,0-3.19,1C120,204.9,119.78,205.38,119.91,205.5Z"/><path class="cls-5" d="M111.9,221.85a15.67,15.67,0,0,0-3.58-.65c-.56,0-1.09-.17-1.19-.55a2.88,2.88,0,0,1,.38-1.67l1.66-4.27c2.32-6.11,4-11.13,3.74-11.22s-2.32,4.78-4.63,10.89c-.56,1.5-1.09,2.94-1.59,4.31a3.26,3.26,0,0,0-.3,2.21,1.41,1.41,0,0,0,.93.82,3.72,3.72,0,0,0,1,.14A13.41,13.41,0,0,0,111.9,221.85Z"/><path class="cls-12" d="M110.38,247.94a40.59,40.59,0,0,0,21.4-5.71s-5.54,12-21.53,10.53Z"/><path class="cls-5" d="M118.91,201.64c.22.6,2.42.32,5,.63s4.68,1,5,.48c.15-.26-.21-.82-1-1.4a8.61,8.61,0,0,0-3.73-1.31,8.4,8.4,0,0,0-3.91.46C119.3,200.89,118.82,201.36,118.91,201.64Z"/><path class="cls-5" d="M97.88,200c.39.5,1.9,0,3.73,0s3.37.33,3.73-.19c.16-.26-.09-.76-.76-1.23a5.41,5.41,0,0,0-6,.19C97.92,199.2,97.71,199.71,97.88,200Z"/><path class="cls-12" d="M112.39,234.33c0-.05.15-.32.6-.6a4,4,0,0,1,4,0c.45.28.65.54.61.59a10,10,0,0,0-2.58-.58A9.08,9.08,0,0,0,112.39,234.33Z"/><path class="cls-12" d="M144.94,218.11a12.54,12.54,0,0,0,1.52-.74,4.11,4.11,0,0,0,1.85-3.28,4.22,4.22,0,0,0-1.66-3.41,3.69,3.69,0,0,0-1.52-.59c0-.06.74-.33,1.73.28a4.36,4.36,0,0,1,2,3.72,4.16,4.16,0,0,1-.74,2.29,4.4,4.4,0,0,1-1.44,1.31A2.5,2.5,0,0,1,144.94,218.11Z"/><path class="cls-10" d="M92.4,178.78c-2.58,6.9,3.55,11.9,8.33,13,6.68,1.56,13.78-2.66,18.35-.87,3.41,1.34,6.63,4,10.25,3.45,1.76-.26,3.5-1.27,5.21-.81,2.19.6,3.08,3.26,3,5.53-.06,2.8-1,5.58-.65,8.36s2.83,5.65,5.54,4.91a6.66,6.66,0,0,0,4.54-6c.32-3.85-.39-8.43-.2-12.29.17-3.4.18-7.14-2-9.77s-5.86-3.34-9.25-3.8a257.44,257.44,0,0,0-43.16-2.28"/><path class="cls-13" d="M84,180.25a2,2,0,0,1-.14-.72,4.15,4.15,0,0,1,.42-2.07,4.64,4.64,0,0,1,2.41-2.29,4.29,4.29,0,0,1,2.1-.23c.75.07,1.5.27,2.29.31a4.42,4.42,0,0,0,2.36-.52,11.33,11.33,0,0,0,2.19-1.59c.72-.62,1.45-1.3,2.29-1.91a7.4,7.4,0,0,1,2.94-1.29,10.93,10.93,0,0,1,6.69,1.14,32.06,32.06,0,0,1,5.92,4.23,23.06,23.06,0,0,0,5.91,4,6.81,6.81,0,0,0,3.25.5,9.16,9.16,0,0,0,3-1,28.29,28.29,0,0,1,5.56-2.56,11.17,11.17,0,0,1,5.36-.17,8.36,8.36,0,0,1,3.89,2.09,7.88,7.88,0,0,1,1.85,2.78,6.35,6.35,0,0,1,.41,2.07,5,5,0,0,1,0,.55v.18a7.28,7.28,0,0,0-2.4-5.37,8.07,8.07,0,0,0-3.77-1.94,10.85,10.85,0,0,0-5.16.22,28.79,28.79,0,0,0-5.47,2.58,9.26,9.26,0,0,1-3.2,1,7.18,7.18,0,0,1-3.49-.51,23.34,23.34,0,0,1-6-4.06,31.85,31.85,0,0,0-5.82-4.17,10.5,10.5,0,0,0-6.37-1.13c-2.09.35-3.6,1.82-5,3.06A11.68,11.68,0,0,1,93.67,175a4.89,4.89,0,0,1-2.57.54c-.83-.06-1.58-.27-2.3-.36a4.24,4.24,0,0,0-2,.18,4.53,4.53,0,0,0-2.33,2.11,4.27,4.27,0,0,0-.5,2C84,180,84.07,180.24,84,180.25Z"/><path class="cls-13" d="M91.72,191.37a1.19,1.19,0,0,1-.7,0,2.36,2.36,0,0,1-1.62-1.16,4.67,4.67,0,0,1-.38-3.14,8.94,8.94,0,0,1,1.64-3.87,8.71,8.71,0,0,1,4.07-3.06,9,9,0,0,1,5.83-.15,20.63,20.63,0,0,1,5.61,3.18,19.32,19.32,0,0,0,5.89,3.3,11,11,0,0,0,6.6-.36,31.66,31.66,0,0,0,5.73-2.73,51.5,51.5,0,0,1,5.15-2.71,15,15,0,0,1,4.92-1.27,9.19,9.19,0,0,1,6.85,2.3,6.07,6.07,0,0,1,1.18,1.62,3.06,3.06,0,0,1,.24.66,7.71,7.71,0,0,0-1.55-2.13,9.14,9.14,0,0,0-6.69-2.09,14.4,14.4,0,0,0-4.78,1.31,50.56,50.56,0,0,0-5.08,2.73,31.66,31.66,0,0,1-5.81,2.79,11.57,11.57,0,0,1-6.91.38,20.09,20.09,0,0,1-6-3.38,20.41,20.41,0,0,0-5.45-3.14,8.71,8.71,0,0,0-5.55.09A8.48,8.48,0,0,0,91,183.42a8.76,8.76,0,0,0-1.64,3.7,4.5,4.5,0,0,0,.27,3,2.36,2.36,0,0,0,1.45,1.19A3.49,3.49,0,0,0,91.72,191.37Z"/><path class="cls-13" d="M153,218a15.27,15.27,0,0,0,.89-1.4,9.71,9.71,0,0,0,1.19-4.28,9.23,9.23,0,0,0-.38-3,11.64,11.64,0,0,0-1.6-3.14c-.7-1-1.53-2.1-2.26-3.3a7.61,7.61,0,0,1-1.31-4.16,10.19,10.19,0,0,1,1.34-4.15,8.82,8.82,0,0,0,1.12-3.68,6.32,6.32,0,0,0-2.95-5.49,6.57,6.57,0,0,0-4.29-.84,14.35,14.35,0,0,0-1.6.39,1.51,1.51,0,0,1,.37-.22,6,6,0,0,1,1.2-.37,6.55,6.55,0,0,1,4.5.72,6.64,6.64,0,0,1,3.25,5.82,9.28,9.28,0,0,1-1.14,3.89,9.68,9.68,0,0,0-1.28,3.94,7.11,7.11,0,0,0,1.23,3.89c.7,1.16,1.52,2.22,2.22,3.29a12.29,12.29,0,0,1,1.62,3.29,9.5,9.5,0,0,1,.33,3.18,9.36,9.36,0,0,1-1.34,4.31,6.69,6.69,0,0,1-.75,1A3.09,3.09,0,0,1,153,218Z"/><path class="cls-5" d="M111.07,206.35c-.1-.83-.24-1.67-.42-2.49a10.15,10.15,0,0,0-12.37-7.28c-.31.08-.62.17-.92.28a10.26,10.26,0,0,0-4.65,3.51,10,10,0,0,0,0,11.85,10.06,10.06,0,0,0,4.65,3.51,10.05,10.05,0,0,0,9.54-1.4,10.32,10.32,0,0,0,3.75-5.55c.18-.82.32-1.64.42-2.48a8,8,0,0,1-.22,2.53,10.2,10.2,0,0,1-3.78,5.88,10.42,10.42,0,0,1-9.92,1.56,9.66,9.66,0,0,1-2.67-1.42,9.83,9.83,0,0,1-2.23-2.23,10.44,10.44,0,0,1,0-12.46,10.47,10.47,0,0,1,10.42-4.09,10.42,10.42,0,0,1,8.13,7.78A8.14,8.14,0,0,1,111.07,206.35Z"/><path class="cls-5" d="M134.51,206.35a20.87,20.87,0,0,0-.42-2.49,10.14,10.14,0,0,0-12.35-7.28,9.12,9.12,0,0,0-.93.28,10.2,10.2,0,0,0-4.66,3.51,10,10,0,0,0,0,11.85,9,9,0,0,0,2.12,2.14,9.19,9.19,0,0,0,2.54,1.37,10.15,10.15,0,0,0,13-6.08c.1-.27.18-.54.26-.82a20.37,20.37,0,0,0,.42-2.48,7.69,7.69,0,0,1-.22,2.53,10.2,10.2,0,0,1-3.7,5.83,10.42,10.42,0,0,1-9.92,1.56,9.66,9.66,0,0,1-2.67-1.42,9.88,9.88,0,0,1-2.24-2.23,10.47,10.47,0,0,1,0-12.46,10.71,10.71,0,0,1,4.91-3.66,10.58,10.58,0,0,1,5.52-.43,10.45,10.45,0,0,1,8.12,7.78A7.81,7.81,0,0,1,134.51,206.35Z"/><path class="cls-5" d="M114.51,204.63h0v.1h0v-.18h0v.2a6.35,6.35,0,0,1-1.68.16c-1,0-1.83-.12-1.83-.26s.82-.26,1.83-.26a6.79,6.79,0,0,1,1.68.16v.2h0v-.18h0v.1h0Z"/><path class="cls-5" d="M146.86,206.89a36.84,36.84,0,0,1-6.3-.19,37.5,37.5,0,0,1-6.26-.71,40.17,40.17,0,0,1,6.3.19A40,40,0,0,1,146.86,206.89Z"/><path class="cls-5" d="M121.07,221.3a2.76,2.76,0,0,1,.07,1.61,5.51,5.51,0,0,1-5.66,4.63,2.63,2.63,0,0,1-1.57-.39c0-.08.62.08,1.57,0a5.64,5.64,0,0,0,5.3-4.33A11.46,11.46,0,0,0,121.07,221.3Z"/><path class="cls-5" d="M81.46,293.09a1.71,1.71,0,0,1,0,.32v.94c0,.86,0,2.08.05,3.62,0,3.17,0,7.7.07,13.29,0,11.22-.34,26.72-1.21,43.82S78.6,387.63,78,398.87c-.28,5.57-.51,10.1-.67,13.27q-.12,2.31-.18,3.6c0,.39,0,.7-.06.94a1.71,1.71,0,0,1,0,.32.86.86,0,0,1,0-.32v-.94c0-.86,0-2.07.09-3.61.09-3.14.25-7.68.5-13.28.47-11.21,1.38-26.69,2.23-43.79s1.31-32.59,1.37-43.81c0-5.58.07-10.11.09-13.28,0-1.54,0-2.76,0-3.62v-.94A1.19,1.19,0,0,1,81.46,293.09Z"/><path class="cls-14" d="M178.07,275.87c-5.38-6.21-15.89-7.12-20.55-3.75s-7.25,9.09-7.72,14.82,1,11.48,3.18,16.79c3.51,8.52,8.7,15.42,16.45,24.2l20,26.22-38.55,37.64,16,25.21,32.77-26.4,27.1-28.72"/><path class="cls-5" d="M38.68,356.71a6.36,6.36,0,0,1,2.08-1,14.92,14.92,0,0,1,5.51-.75,15.16,15.16,0,0,1,5.41,1.34,6.33,6.33,0,0,1,2,1.22c0,.07-.8-.37-2.1-.88a16.82,16.82,0,0,0-10.67-.58C39.52,356.43,38.72,356.79,38.68,356.71Z"/><path class="cls-15" d="M183.26,281.76h0c-13.45-17.84-27.93-16.37-35.31-16.58v-7.83c-5.45,0-12.9,4.91-16.75,8.42L127.39,271h0A19.46,19.46,0,0,0,115,258.79a38.62,38.62,0,0,0-6.37-1.44v7c-18.08.51-27.75,5.45-39.83,19.43-.62.72-1.85,2-3.26,3.34h0l-35.74,42c-7.3,8.08-14,19.2-12.43,30h0c1.71,12.16,8.8,20.16,22.37,29.33l37.6,24.37L77.11,417h89.73s60.85-44.89,62.34-61.52C230.34,342.35,209.38,314.5,183.26,281.76ZM78.8,377.07,52.49,357.44,80.91,328ZM165,378.63l-.71-14.53,3.82-38.17c7.5,8.6,21.38,25.67,21.38,28.22Z"/><path class="cls-5" d="M147.93,265.22a7.33,7.33,0,0,1-.68,1.19c-.48.74-1.17,1.81-2.08,3.1A70.84,70.84,0,0,1,137.3,279c-.85.86-1.71,1.67-2.55,2.44l-.42.39v-.57a12.75,12.75,0,0,0-3.68-8.76,5.46,5.46,0,0,0-2.29-1.62,1.5,1.5,0,0,0-1,.17,1,1,0,0,1,1-.35,5.24,5.24,0,0,1,2.49,1.56,12.73,12.73,0,0,1,4,9l-.42-.19c.82-.77,1.68-1.57,2.52-2.43a85.2,85.2,0,0,0,8-9.32l2.2-3A6.43,6.43,0,0,1,147.93,265.22Z"/><path class="cls-5" d="M108.56,264.39a6.3,6.3,0,0,1,.78.93l2,2.63c1.67,2.24,3.93,5.36,6.41,8.82l1.62,2.26-.45.07a21.32,21.32,0,0,1,2-4.63,8,8,0,0,1,2.89-2.85,5.48,5.48,0,0,1,2.59-.72,2.27,2.27,0,0,1,1,.14h-1a5.63,5.63,0,0,0-2.43.83,8,8,0,0,0-2.68,2.8,22.18,22.18,0,0,0-1.92,4.55l-.16.47-.29-.4L117.3,277c-2.48-3.46-4.7-6.61-6.29-8.9-.73-1.09-1.35-2-1.85-2.73A4.9,4.9,0,0,1,108.56,264.39Z"/><g class="cls-16"><path d="M127.37,271a15.43,15.43,0,0,1,3.91,12.27c-.19,1.46-.36,3.41,1,3.95.95.37,2-.28,2.77-.92a54.43,54.43,0,0,0,14.1-17.2,3.38,3.38,0,0,0,.52-1.75,1.21,1.21,0,0,0-1.17-1.17,1.81,1.81,0,0,0-1,.73c-4.16,4.8-8.76,9.79-12.92,14.58a10.69,10.69,0,0,0-2.31-7.39c-1.65-2-3.45-4.07-4.87-3.1"/></g><path class="cls-5" d="M165.74,415.33a2.53,2.53,0,0,1-.31-.42l-.84-1.26-3.07-4.76c-2.61-4.14-6.26-9.91-10.51-16.62l-.1-.17.14-.13,9.38-9.36,20.41-20.2c2.6-2.54,4.72-4.6,6.22-6.08l1.72-1.63a5.41,5.41,0,0,1,.62-.55,4.68,4.68,0,0,1-.55.62c-.41.43-1,1-1.64,1.71l-6.14,6.23L160.76,383c-3.3,3.29-6.48,6.44-9.39,9.33v-.3c4.18,6.75,7.78,12.55,10.35,16.72,1.24,2,2.24,3.66,2.95,4.84.32.53.57,1,.77,1.3A3.19,3.19,0,0,1,165.74,415.33Z"/><path class="cls-5" d="M154.71,275.36l-.15.19-.46.54c-.43.46-1,1.18-1.72,2.12a21.24,21.24,0,0,0-3.83,9.13,26.14,26.14,0,0,0,2.23,14.43,33.81,33.81,0,0,0,4.4,7.53c1.89,2.41,3.89,4.82,5.94,7.41,8.07,10.17,15,19.64,20.1,26.44l6,8.07c.69.92,1.23,1.66,1.63,2.2l.41.58.13.2a1,1,0,0,1-.17-.17l-.45-.55-1.7-2.19c-1.47-1.87-3.57-4.59-6.15-8-5.16-6.74-12.15-16.18-20.2-26.33-2-2.55-4-5-5.94-7.37a33.85,33.85,0,0,1-4.44-7.66,26.27,26.27,0,0,1-2.15-14.68A21.24,21.24,0,0,1,154.07,276l.5-.5C154.64,275.41,154.7,275.35,154.71,275.36Z"/><path class="cls-4" d="M188.44,288.27c0,.05-.55.24-1.49.74a15,15,0,0,0-3.55,2.73,29.65,29.65,0,0,0-4,5.34,82.18,82.18,0,0,1-4.47,7,17,17,0,0,1-13,6.92,15.5,15.5,0,0,1-4.55-.43,9.58,9.58,0,0,1-1.19-.35,2,2,0,0,1-.4-.17,21.71,21.71,0,0,0,6.12.58,17,17,0,0,0,12.57-6.87c1.77-2.3,3.11-4.76,4.47-6.9a27.89,27.89,0,0,1,4.15-5.35,14,14,0,0,1,3.72-2.66,10.73,10.73,0,0,1,1.16-.45A2.23,2.23,0,0,1,188.44,288.27Z"/><path class="cls-4" d="M164.59,376.2h-.24l-.67-.16c-.3-.08-.67-.13-1.11-.2s-1-.14-1.52-.17a28.14,28.14,0,0,0-9.65,1.24,49.18,49.18,0,0,0-6.35,2.32c-2.22,1-4.52,2.22-7,3.39a45.05,45.05,0,0,1-8.08,3.06,23.34,23.34,0,0,1-4.54.72,19.7,19.7,0,0,1-4.73-.34,27.62,27.62,0,0,1-8.59-3.54c-2.58-1.54-4.89-3.29-7.1-4.91-4.37-3.28-8.55-6-12.52-7.18a20.39,20.39,0,0,0-5.47-.9,15.66,15.66,0,0,0-4.15.49,17.05,17.05,0,0,0-3.32,1.33l.19-.14.6-.36a12.14,12.14,0,0,1,2.48-1,15.33,15.33,0,0,1,4.21-.58,20.56,20.56,0,0,1,5.56.83c4.06,1.15,8.31,3.89,12.7,7.15,2.22,1.62,4.53,3.34,7.08,4.86a26.83,26.83,0,0,0,8.43,3.47,18.67,18.67,0,0,0,4.6.33,22.3,22.3,0,0,0,4.44-.69,45.89,45.89,0,0,0,8-3c2.48-1.16,4.79-2.38,7-3.35a48.48,48.48,0,0,1,6.42-2.28A27.28,27.28,0,0,1,161,375.5,13.22,13.22,0,0,1,164.59,376.2Z"/><path class="cls-4" d="M65.74,367.32a1.5,1.5,0,0,1,.08.35,8.52,8.52,0,0,1,.12,1,15.35,15.35,0,0,1-.16,3.71,12.31,12.31,0,0,1-2.08,5.12,15.8,15.8,0,0,1-5.13,4.39c-2,1.23-4.07,2.26-5.72,3.46A15.91,15.91,0,0,0,49,389.08a6.2,6.2,0,0,0-1.15,3.36c0,.86.13,1.33.07,1.34a.93.93,0,0,1-.12-.33,4.74,4.74,0,0,1-.16-1,6.2,6.2,0,0,1,1-3.57A15.26,15.26,0,0,1,52.52,385c1.68-1.25,3.71-2.3,5.73-3.51a16,16,0,0,0,5-4.23,12.39,12.39,0,0,0,2.11-4.9,18.53,18.53,0,0,0,.32-3.64A7.74,7.74,0,0,1,65.74,367.32Z"/><path class="cls-4" d="M216.65,325.93a22.73,22.73,0,0,0-5.93,1.86,17.62,17.62,0,0,0-5.33,4,16.81,16.81,0,0,0-2.26,3.24c-.66,1.21-1.11,2.58-1.76,3.93a9.73,9.73,0,0,1-2.63,3.52,11.8,11.8,0,0,1-3.58,2,17.43,17.43,0,0,1-6.8.84,38.93,38.93,0,0,1-4.58-.54,10.3,10.3,0,0,1-1.65-.35,10.6,10.6,0,0,1,1.68.15c1.08.11,2.63.32,4.56.37A17.57,17.57,0,0,0,195,344a9.8,9.8,0,0,0,5.9-5.27c.63-1.32,1.09-2.7,1.78-3.95a16.36,16.36,0,0,1,2.39-3.29,17.6,17.6,0,0,1,5.53-4.06,16.81,16.81,0,0,1,4.4-1.38c.41-.06.83-.11,1.25-.14A1.34,1.34,0,0,1,216.65,325.93Z"/><path class="cls-4" d="M167,334.37l-.23.07-.68.15c-.6.13-1.49.29-2.65.47a59.36,59.36,0,0,1-9.87.7,45.52,45.52,0,0,1-14.45-2.45,47.32,47.32,0,0,1-7.86-3.69,58.41,58.41,0,0,0-8.3-4.05,19.44,19.44,0,0,0-4.52-1,18.25,18.25,0,0,0-4.49.22,29.16,29.16,0,0,0-8,2.9c-4.85,2.57-8.93,5.43-12.62,7.42a30.41,30.41,0,0,1-9.21,3.6,12.69,12.69,0,0,1-2.67.29h-.7l.69-.08a14.76,14.76,0,0,0,2.64-.39,31.88,31.88,0,0,0,9.07-3.71c3.63-2,7.69-4.91,12.57-7.53a29.39,29.39,0,0,1,8.17-3,18.79,18.79,0,0,1,4.62-.24,19.58,19.58,0,0,1,4.65,1.05,57.4,57.4,0,0,1,8.37,4.1,49.39,49.39,0,0,0,7.78,3.68,46.05,46.05,0,0,0,14.29,2.53,63.39,63.39,0,0,0,9.83-.53c1.16-.15,2.05-.28,2.66-.38l.69-.09Z"/><path class="cls-4" d="M69.2,340.15a3.64,3.64,0,0,0-.06-1.54A4.44,4.44,0,0,0,66,336c-.87-.26-1.86-.41-2.92-.65a7.09,7.09,0,0,1-3.21-1.47,8.4,8.4,0,0,1-2.22-3.2,25.06,25.06,0,0,1-1.15-4,22.1,22.1,0,0,0-1.14-3.88,14.75,14.75,0,0,0-1.87-3.24,14.36,14.36,0,0,0-4.83-4.07,15.39,15.39,0,0,0-4-1.42c-1-.2-1.57-.24-1.57-.29a1.48,1.48,0,0,1,.42,0,11.76,11.76,0,0,1,1.18.11,14.05,14.05,0,0,1,4.19,1.29,14.33,14.33,0,0,1,5,4.11,15,15,0,0,1,2,3.33,23.5,23.5,0,0,1,1.18,4,23.68,23.68,0,0,0,1.11,3.89,8,8,0,0,0,2.06,3,6.73,6.73,0,0,0,3,1.42c1,.26,2,.43,2.93.72a4.62,4.62,0,0,1,3.23,2.86,2.48,2.48,0,0,1,0,1.21A1,1,0,0,1,69.2,340.15Z"/><path class="cls-4" d="M148.18,288.86a13.62,13.62,0,0,0-2.94-1.19,9.12,9.12,0,0,0-3.68,0,19.17,19.17,0,0,0-4.67,1.57c-1.67.75-3.43,1.73-5.35,2.74a30.11,30.11,0,0,1-6.43,2.67,18.64,18.64,0,0,1-7.69.25,29.72,29.72,0,0,1-7.84-2.59c-5.11-2.49-9.36-5.83-13.46-8.43a36.14,36.14,0,0,0-11.65-5.33,19,19,0,0,0-8.59-.1,31,31,0,0,0-3,1,12,12,0,0,1,3-1.19,18.63,18.63,0,0,1,8.72-.06,36,36,0,0,1,11.83,5.28c4.14,2.59,8.39,5.92,13.42,8.37a29.55,29.55,0,0,0,7.7,2.56,18.36,18.36,0,0,0,7.49-.22,29.69,29.69,0,0,0,6.35-2.58c1.92-1,3.7-2,5.4-2.7a19.94,19.94,0,0,1,4.77-1.52,9.45,9.45,0,0,1,3.78.14,10.13,10.13,0,0,1,2.2.92C147.76,288.58,148,288.71,148.18,288.86Z"/><path class="cls-17" d="M142.53,415.82l2.78,1.39h16l3.23-2.64L152.9,395.31c-1.43.63-7.71,1.61-9.74,2.32a16.08,16.08,0,0,1-5.45.92,29,29,0,0,1-6.17-.51l-.44-.14a2.32,2.32,0,0,0-.86-.18c-1.73-.15-3.1,1.66-2.13,3.09s5.7,3.34,11.74,3.17h.29c5.3,0,.44,4.44-2.71,7.08a4.18,4.18,0,0,0-1.52,3.79,1.73,1.73,0,0,0,.71,1.3C138,417,142.53,415.82,142.53,415.82Z"/><path class="cls-5" d="M77.24,413.43a1.31,1.31,0,0,1,0-.28v-.83c0-.77.06-1.84.11-3.19.12-2.8.28-6.79.49-11.71.41-9.92,1-23.56,1.61-38.63s1-28.76,1.28-38.65c.11-4.92.19-8.91.25-11.72,0-1.35,0-2.42.07-3.19v-.82a.71.71,0,0,1,0-.29,1.4,1.4,0,0,1,0,.29v4c0,2.77,0,6.77-.08,11.72-.14,9.9-.54,23.57-1.13,38.67s-1.24,28.75-1.76,38.63c-.28,4.91-.5,8.9-.66,11.7-.09,1.35-.16,2.42-.21,3.18l-.07.83C77.18,413.24,77.21,413.34,77.24,413.43Z"/><path class="cls-5" d="M120.77,415.33a1.15,1.15,0,0,1,0-.37c0-.27,0-.63-.09-1.09l-.29-4.21c-.12-1.82-.27-4.06-.35-6.66s-.27-5.55-.29-8.82-.14-6.86-.09-10.71v-6c0-2.09.09-4.16.14-6.32.25-8.65.7-18.15,1.4-28.11,1.4-19.93,3.18-37.92,4.32-51,.56-6.5,1-11.76,1.34-15.44.15-1.79.28-3.2.36-4.19,0-.46.08-.82.11-1.09s0-.37,0-.37a2.28,2.28,0,0,1,0,.37l0,1.1q-.1,1.5-.27,4.2c-.23,3.65-.64,8.93-1.17,15.45-1,13-2.77,31-4.17,50.95-.7,10-1.16,19.45-1.44,28.09,0,2.16-.11,4.27-.16,6.32s0,4-.07,6c-.06,3.84,0,7.42,0,10.69s.15,6.23.21,8.82.17,4.84.26,6.66.15,3.22.2,4.21V415A2.35,2.35,0,0,1,120.77,415.33Z"/><path class="cls-5" d="M128.13,316.81c0-.05.51-.28,1.13.25a1.43,1.43,0,1,1-2.24,1.72,1.44,1.44,0,0,1,0-1.35c.41-.71,1-.67,1-.6s-.43.17-.66.76a1.17,1.17,0,0,0,0,1,1,1,0,0,0,1.48.19,1.06,1.06,0,0,0,.36-.5,1.22,1.22,0,0,0-.28-.93C128.59,316.84,128.13,316.9,128.13,316.81Z"/><path class="cls-5" d="M125.32,361.71s.52-.29,1.14.25a1.5,1.5,0,0,1,.48,1.26,1.49,1.49,0,0,1-2.73.46,1.49,1.49,0,0,1,.06-1.36c.41-.71,1-.66,1-.6a1.73,1.73,0,0,0-.66.76,1.1,1.1,0,0,0,0,1,1,1,0,0,0,1.37.33,1,1,0,0,0,.46-.64,1.18,1.18,0,0,0-.28-.92C125.79,361.71,125.32,361.78,125.32,361.71Z"/><path class="cls-4" d="M197.07,392.56a6.07,6.07,0,0,1-1.34-.17,17.41,17.41,0,0,1-3.52-1.13,19.64,19.64,0,0,1-9-8.05,31,31,0,0,1-2.49-6.23,18.81,18.81,0,0,0-2.21-4.9,9.3,9.3,0,0,0-2.54-2.54c-.73-.45-1.19-.6-1.17-.65a1.4,1.4,0,0,1,.34.08,6.36,6.36,0,0,1,.93.4,8.52,8.52,0,0,1,2.74,2.5,18.35,18.35,0,0,1,2.37,5,31.52,31.52,0,0,0,2.48,6.12,20.05,20.05,0,0,0,8.71,8A30.86,30.86,0,0,0,197.07,392.56Z"/></g><g id="freepik--character-2--inject-34"><path class="cls-14" d="M315.51,417.18l-17-49.34,7.86-47.34c2.29-12.77,3.57-24,.14-30.43-9.17-17.13-20.24-18.67-35.36-22.6-3.12-.81-26.85-1.61-29.46-1-20.59,2.31-33.77,13.23-41,31l-7.84,31.6-10.77,33a14.13,14.13,0,0,1-9.49,7.73L131.07,384l.35,8.13-.35,11,55.3-10.41c11.08-2.08,22.35-6.17,25.53-16.86l5.95-17.62c2.91,7.46,6.08,14.3,6.08,14.3l-4,44.43Z"/><path class="cls-14" d="M301.27,329.52l-15.8,52.83a25.49,25.49,0,0,1-17,17.08L202.71,417,194,394.25l59.44-22.1L268,319.25s3.37-29.58,30.12-28.06"/><path class="cls-18" d="M298.13,291.19h-.8c-.53,0-1.31-.06-2.34,0A26.19,26.19,0,0,0,286.2,293a23.92,23.92,0,0,0-5.67,3.18,27.31,27.31,0,0,0-5.41,5.54,40.23,40.23,0,0,0-6.93,17.53h0c-4,14.72-9,32.74-14.53,52.93v.12h-.11l-59.48,22.21.15-.33,1.55,4c2.45,6.4,4.87,12.7,7.16,18.67l-.31-.16,56.5-15,6.37-1.7c1-.28,2.09-.54,3.11-.84a26.13,26.13,0,0,0,2.94-1.12A25.13,25.13,0,0,0,284,385.71a36.81,36.81,0,0,0,1.86-5.22q1.57-5.24,3-10c3.85-12.74,6.94-23,9.07-30l2.47-8.1.65-2.09c.15-.47.24-.71.24-.71s-.06.25-.19.72-.34,1.19-.61,2.11c-.55,1.87-1.35,4.6-2.38,8.13l-8.92,30.07q-1.41,4.8-3,10a34.8,34.8,0,0,1-1.86,5.28,25.18,25.18,0,0,1-12.58,12.58,27.25,27.25,0,0,1-3,1.15c-1,.3-2.07.56-3.12.85l-6.37,1.7-56.49,15.08-.22.06-.08-.21c-2.29-6-4.72-12.28-7.17-18.67l-1.55-4-.09-.24.24-.09L253.32,372l-.15.16C258.76,352,263.75,334,267.82,319.3h0a40.27,40.27,0,0,1,7.06-17.65,27.34,27.34,0,0,1,5.49-5.57,24,24,0,0,1,5.74-3.17A25.55,25.55,0,0,1,295,291.2a22.83,22.83,0,0,1,2.34,0Z"/><path class="cls-18" d="M256.7,360.28a2.64,2.64,0,0,1-.79.06,9.54,9.54,0,0,1-2.13-.25,13.81,13.81,0,0,1-6.24-3.29,15.12,15.12,0,0,1-4.06-5.77,8,8,0,0,1-.39-1.17,5.34,5.34,0,0,1-.2-.9c-.08-.5-.11-.78-.07-.78a25.89,25.89,0,0,0,1,2.7,16.42,16.42,0,0,0,4.06,5.53,14.79,14.79,0,0,0,6,3.32C255.58,360.19,256.7,360.17,256.7,360.28Z"/><path class="cls-18" d="M217.65,320.1a9.2,9.2,0,0,1-.55,1.55c-.39,1-1,2.41-1.63,4.19-1.3,3.53-3.13,8.54-3.32,14.3a23.56,23.56,0,0,0,1.09,8,28.67,28.67,0,0,0,2.71,6,40,40,0,0,0,2.49,3.71,14.57,14.57,0,0,1,1,1.34,3,3,0,0,1-.32-.3c-.2-.21-.47-.5-.81-.91a29.59,29.59,0,0,1-2.66-3.65,27.79,27.79,0,0,1-2.85-6.07,23.83,23.83,0,0,1-1.15-8.13,43,43,0,0,1,3.47-14.42c.71-1.76,1.35-3.16,1.79-4.13A9.74,9.74,0,0,1,217.65,320.1Z"/><path class="cls-18" d="M259.21,379.2a13.48,13.48,0,0,0-6.11-7.1,3,3,0,0,1,1.36.47,9.59,9.59,0,0,1,4.48,5.2A3.07,3.07,0,0,1,259.21,379.2Z"/><path class="cls-11" d="M195.2,397.41s-18.81,1.68-18.55,13.9l23.42-1.19Z"/><path class="cls-10" d="M225.52,192.64q-2.58,12.48-4.92,25c-2,10.58-3.8,21.64-.81,32,1.64,5.68,4.66,10.84,7.65,15.94,1.68,2.86,3.52,5.88,6.5,7.36,4.05,2,9.17.42,12.4-2.75s4.86-7.59,6-12c2.17-8.54,2.65-17.41,3-26.22s.53-17.95-2-26.49-8.07-16.62-16.32-20"/><path class="cls-5" d="M226.88,186a14.6,14.6,0,0,1,8.19-3.05c2.4-4.86,8.09-7.09,13.41-8.12,7.84-1.53,7-1.74,14.29,1.48s17.67,12.32,19,20.2a71.91,71.91,0,0,0,6.57,19.88c2,4.15,5.9,7,8.21,11a16.44,16.44,0,0,1,.95,14.4c-1.88,4.51-5.87,8.49-5.49,13.35.21,2.83.11,4.85,1.23,7.46,3.79,8.84,2,20.62-6.14,25.72s-19.92,3.32-26.21-4c-5.46-6.32-6.51-15.34-6-23.68s2.43-16.63,1.89-25"/><path class="cls-5" d="M236.22,417l-.12-2.88-42.4-4.47-18.58-53.41-79.57-1.8L119.62,417Q178.63,417.4,236.22,417Z"/><path class="cls-11" d="M255.53,288.13c9.54,0,18.12-8.13,17.84-20.21l1.72-69h0a5.76,5.76,0,0,0-5.16-5.85l-28.43-3a17.32,17.32,0,0,0-19,15.41c0,.25-.05.49-.06.73-.68,10.92-1.09,24.29.2,32.44,2.6,16.39,15.17,18.48,15.17,18.48l-.31,11.45c-.48,12.2,8.65,19.54,18.07,19.54Z"/><path class="cls-5" d="M228.76,215.11a2.1,2.1,0,0,0,2,2.12,2,2,0,0,0,2.15-1.83v-.06a2.1,2.1,0,0,0-2-2.12,2,2,0,0,0-2.16,1.83Z"/><path class="cls-5" d="M225.3,213.17c.26.27,1.86-.9,4.12-.9s3.92,1.14,4.16.86c.12-.12-.14-.61-.86-1.14a5.93,5.93,0,0,0-3.34-1,5.55,5.55,0,0,0-3.27,1.06C225.41,212.55,225.18,213.05,225.3,213.17Z"/><path class="cls-5" d="M250.6,215.53a2.09,2.09,0,0,0,2,2.12,2,2,0,0,0,2.16-1.82s0,0,0-.07a2.1,2.1,0,0,0-2-2.12,2,2,0,0,0-2.17,1.82Z"/><path class="cls-5" d="M247.54,213.59c.26.28,1.85-.9,4.11-.9s3.92,1.14,4.17.86c.12-.12-.14-.61-.87-1.14a5.89,5.89,0,0,0-3.33-1,5.58,5.58,0,0,0-3.28,1.06C247.65,213,247.41,213.47,247.54,213.59Z"/><path class="cls-5" d="M239.33,230.37a15.3,15.3,0,0,0-3.67-.66c-.58-.06-1.13-.18-1.23-.57a3,3,0,0,1,.39-1.72c.54-1.39,1.11-2.86,1.71-4.39,2.37-6.27,4.09-11.42,3.83-11.51s-2.38,4.91-4.75,11.17c-.57,1.55-1.12,3-1.64,4.43a3.35,3.35,0,0,0-.3,2.26,1.44,1.44,0,0,0,1,.85,3.35,3.35,0,0,0,1,.13A14,14,0,0,0,239.33,230.37Z"/><path class="cls-12" d="M237.77,257.14a41.65,41.65,0,0,0,22-5.86S254.39,262.54,238,261Z"/><path class="cls-19" d="M240.29,235.82a4,4,0,0,1,3.65-1.51,3.78,3.78,0,0,1,2.57,1.37,2.37,2.37,0,0,1,.18,2.7,2.72,2.72,0,0,1-3,.75,8.57,8.57,0,0,1-2.89-1.72,2.4,2.4,0,0,1-.64-.67.74.74,0,0,1,0-.85"/><path class="cls-5" d="M246,231.93c-.37,0-.38,2.44-2.48,4.18s-4.71,1.47-4.73,1.82c0,.15.58.47,1.69.5a6.08,6.08,0,0,0,4-1.37,5.3,5.3,0,0,0,1.91-3.51C246.43,232.53,246.15,231.92,246,231.93Z"/><path class="cls-5" d="M246.52,209.63c.22.62,2.48.33,5.14.65s4.8,1,5.15.49c.16-.27-.22-.84-1.08-1.44a8.71,8.71,0,0,0-3.82-1.34,8.92,8.92,0,0,0-4,.47C246.92,208.86,246.43,209.34,246.52,209.63Z"/><path class="cls-5" d="M226.13,206.62c.4.52,2,0,3.84,0s3.46.34,3.82-.19c.16-.26-.09-.78-.78-1.26a5.53,5.53,0,0,0-6.17.19C226.18,205.84,226,206.37,226.13,206.62Z"/><path class="cls-10" d="M222.74,203.49c6.17-3.58,12.18-6.89,16-12.89,2.13,6,6.29,9,11.81,12.19s11.69,5.06,17.8,6.89c-3.09,3-3.5,7.85-2.79,12.1s2.34,8.34,2.61,12.64c.35,5.74-1.75,11.37-1.88,17.12-.18,7.89,3.3,15.34,6.71,22.45l14.81-8.63-2.13-38.45.18-27.21-23.09-21.46-29.24,3.2Z"/><path class="cls-20" d="M219.45,284.34c7.51,7.59,6.71,21.12,15,27.91,5.06,4.16,12.45,4.55,18.66,2.45s11.43-6.35,16.22-10.83,9.32-9.29,14.77-12.92c5.29-3.53,14.35-5.7,15.63-11.94.94-4.56-3.86-10.05-4.76-14.62-1.43-7.26,6.42-12.87,7.73-20.15,2.62-14.55-5.06-31.63-13.06-44s-12.52-26.38-32.8-27.53c-18.15-.81-30.51,7.9-36.55,20.5-3,6.31-3.73,13.45-4.32,20.43-1.37,16.3-2.13,33.58,5.4,48.1,1.56,3,3.42,6.82,1.32,9.48-1.92,2.43-6.27,2.33-7.49,5.18S217.19,282.05,219.45,284.34Zm22.62-96.63c2.43-.1,9.64,0,17.68,10.71,4.81,6.41,4.8,16.79,4.7,25.84-.09,6.73,0,23.76,0,23.76s1.06,21.51-6.25,23.41c-9,2.34-16.83.73-23.54-5.66s-10.55-15.36-12.08-24.5-2.39-18.46-1.19-27.65a38.6,38.6,0,0,1,5.46-15.91A22.24,22.24,0,0,1,242.07,187.71Z"/><g class="cls-21"><path d="M298.13,272c-6,3.26-10.15,8.11-15,12.89s-10.34,9.41-17,11.13-14.67-.33-18-6.32c18.77,3.2,40.56-11.79,47-29.72a10.3,10.3,0,0,0-.06,4.75A62.75,62.75,0,0,0,298.13,272Z"/></g><g class="cls-21"><path d="M223.5,267a18.43,18.43,0,0,0,9.07,11.46,12.31,12.31,0,0,1,2.86,1.69,2.8,2.8,0,0,1,.87,3,2.69,2.69,0,0,1-3.22,1.18,7.94,7.94,0,0,1-3-2.12c-3.27-3.16-6.64-6.36-7.56-10.8a5.27,5.27,0,0,0,1.08-2.23A10.59,10.59,0,0,0,223.5,267Z"/></g><path class="cls-5" d="M293.64,263.51a2.83,2.83,0,0,1-.28.58c-.21.37-.48.94-.91,1.62a55.54,55.54,0,0,1-3.88,5.62,59.85,59.85,0,0,1-6.85,7.47,42,42,0,0,1-10.2,7.07,47,47,0,0,1-6.06,2.17,45.43,45.43,0,0,1-5.86,1.3,40.43,40.43,0,0,1-10.13.38,34,34,0,0,1-6.71-1.28c-.78-.21-1.36-.45-1.76-.59a2.24,2.24,0,0,1-.6-.25s.86.24,2.42.64a36.93,36.93,0,0,0,6.69,1.11,41.89,41.89,0,0,0,10-.48,46,46,0,0,0,5.78-1.32,47.64,47.64,0,0,0,6-2.15,42.57,42.57,0,0,0,10.09-7,67.89,67.89,0,0,0,10.88-12.84c.45-.66.75-1.21,1-1.56A4.3,4.3,0,0,1,293.64,263.51Z"/><path class="cls-5" d="M247.61,282.06a4.44,4.44,0,0,1-1.19.31,18.69,18.69,0,0,1-3.34.3,20.5,20.5,0,0,1-18.2-10.91,18.35,18.35,0,0,1-1.31-3.1,4.46,4.46,0,0,1-.28-1.2,41.64,41.64,0,0,0,1.92,4.12,21,21,0,0,0,17.86,10.72C245.88,282.38,247.6,282,247.61,282.06Z"/><path class="cls-5" d="M243.72,306.84a2.74,2.74,0,0,1,.58-.15c.38-.09,1-.17,1.68-.35a51.55,51.55,0,0,0,6.07-1.69,69.18,69.18,0,0,0,18.27-9.77,151,151,0,0,0,15.75-13.61l4.54-4.4c.5-.49.92-.88,1.24-1.19a3.5,3.5,0,0,1,.46-.39,2.82,2.82,0,0,1-.38.46L290.75,277c-1,1.08-2.53,2.63-4.42,4.52a136.92,136.92,0,0,1-15.7,13.78A66.13,66.13,0,0,1,252.17,305a45,45,0,0,1-6.15,1.54c-.73.15-1.32.2-1.71.25A2.35,2.35,0,0,1,243.72,306.84Z"/></g><g id="freepik--character-3--inject-34"><path class="cls-14" d="M615.88,327.82l-35.28-41.6-.08.08c-1.39-1.37-2.61-2.59-3.23-3.3-12.22-14.16-21.93-19-40.64-19.26h0l-36.36.78c-6.76.56-22.1-2.33-36.29,16.48h0c-25.85,32.39-46.58,59.94-45.41,72.94,1.47,16.45,64.21,63.35,64.21,63.35l86.24-.07-.18-6.57,37.21-24.15c13.42-9.07,20.43-17,22.13-29C629.69,346.82,623.07,335.82,615.88,327.82Zm-158,24.76c0-2.53,13.6-18.48,21-27l3.85,36.83-.66,14.39Zm109.41,22.67-2-48.54h0l28.12,29.09Z"/><rect class="cls-2" x="454.37" y="361.14" width="77.95" height="53.35" rx="3.42" transform="translate(-120.76 258.73) rotate(-26.3)"/><path class="cls-3" d="M493.07,383.9a3.95,3.95,0,1,1-1.31,5.43h0A4,4,0,0,1,493.07,383.9Z"/><path class="cls-18" d="M564.7,292.17a1.71,1.71,0,0,1,0,.32V297c0,3.14.06,7.62.1,13.15.06,11.1.49,26.42,1.35,43.34s1.74,32.23,2.21,43.32c.24,5.54.4,10,.49,13.14,0,1.52.06,2.72.08,3.57v.93a1.71,1.71,0,0,1,0,.32,1.71,1.71,0,0,1,0-.32,5.69,5.69,0,0,0-.06-.93c0-.85-.11-2-.18-3.57-.16-3.13-.39-7.61-.66-13.12-.61-11.12-1.44-26.42-2.36-43.32s-1.24-32.26-1.2-43.36c0-5.52,0-10,.07-13.15,0-1.52,0-2.72.05-3.57v-.93A1.35,1.35,0,0,1,564.7,292.17Z"/><path class="cls-18" d="M421.31,360.71l.23.3.67.9c.59.79,1.47,2,2.66,3.46a136.58,136.58,0,0,0,11,12.19q3.75,3.74,8.53,8c3.18,2.84,6.76,5.65,10.56,8.7l25.4,20.38-.35.06c4.91-7.75,10.24-16.17,15.79-24.95v.32l-19.68-19.2-18.46-18-.16-.15.13-.18c7-9.15,13.62-17.85,19.78-25.94h0a129.55,129.55,0,0,0,10.45-13.12A59.75,59.75,0,0,0,494.73,300,34.2,34.2,0,0,0,497,286.71,21.94,21.94,0,0,0,493.6,276a17.43,17.43,0,0,0-6.78-6.08,12.7,12.7,0,0,0-6.59-1.46,10.27,10.27,0,0,0-4.05,1.2c-.86.46-1.26.77-1.27.75l.3-.23a7.33,7.33,0,0,1,.93-.59,10.26,10.26,0,0,1,4.08-1.28,12.67,12.67,0,0,1,6.7,1.42,17.42,17.42,0,0,1,6.91,6.11,22.28,22.28,0,0,1,3.48,10.9A34.87,34.87,0,0,1,495.19,300a60.22,60.22,0,0,1-6.88,13.61,130.28,130.28,0,0,1-10.45,13.18h0c-6.16,8.09-12.79,16.8-19.75,26v-.34l18.47,18,19.67,19.21.15.15-.11.17c-5.56,8.78-10.9,17.19-15.82,24.93l-.14.23-.21-.17L454.77,394.5c-3.79-3.06-7.39-5.9-10.54-8.74s-6-5.51-8.51-8a131.87,131.87,0,0,1-11-12.31c-1.17-1.5-2-2.7-2.6-3.51-.28-.39-.49-.7-.64-.92Z"/><path class="cls-18" d="M607.07,355.11a14,14,0,0,1-2-.62,13.89,13.89,0,0,0-9.73.51,15.58,15.58,0,0,1-1.93.83,5.87,5.87,0,0,1,1.77-1.17,12.41,12.41,0,0,1,10-.52A6.16,6.16,0,0,1,607.07,355.11Z"/><path class="cls-11" d="M519.94,281.11c-9.2,0-17.47-7.84-17.39-19.52l-1.66-66.51h.19a5.56,5.56,0,0,1,5-5.64l27.42-2.9a16.7,16.7,0,0,1,18.35,14.85l.06.71c.66,10.53,1.06,23.42-.19,31.28-2.54,15.83-14.65,17.85-14.65,17.85l.29,11c.47,11.76-8.34,18.84-17.42,18.84Z"/><path class="cls-5" d="M545.75,210.71a2,2,0,0,1-2,2,1.94,1.94,0,0,1-2.09-1.76v-.07a2,2,0,0,1,4-.17Z"/><path class="cls-5" d="M549.07,208.83c-.25.27-1.78-.87-4-.86s-3.77,1.09-4,.83.14-.6.84-1.11a5.64,5.64,0,0,1,3.21-1,5.49,5.49,0,0,1,3.16,1C549,208.24,549.21,208.71,549.07,208.83Z"/><path class="cls-5" d="M524.7,211.11a2,2,0,0,1-2,2h0a1.94,1.94,0,1,1-.14-3.88h.05A2,2,0,0,1,524.7,211.11Z"/><path class="cls-5" d="M527.64,209.24c-.25.27-1.79-.87-4-.87s-3.78,1.1-4,.83c-.12-.11.14-.59.84-1.1a5.57,5.57,0,0,1,3.21-1,5.49,5.49,0,0,1,3.16,1C527.54,208.64,527.77,209.12,527.64,209.24Z"/><path class="cls-5" d="M535.56,225.42a14.08,14.08,0,0,1,3.54-.64c.56-.06,1.09-.17,1.18-.55a2.89,2.89,0,0,0-.37-1.65c-.53-1.35-1.07-2.76-1.65-4.24-2.29-6-3.94-11-3.7-11.1s2.3,4.73,4.58,10.77c.56,1.49,1.08,2.91,1.58,4.27a3.26,3.26,0,0,1,.29,2.19,1.41,1.41,0,0,1-.91.81,3.4,3.4,0,0,1-1,.13A14.38,14.38,0,0,1,535.56,225.42Z"/><path class="cls-22" d="M537.07,251.23a40.19,40.19,0,0,1-21.17-5.65s5.48,11.89,21.29,10.41Z"/><path class="cls-5" d="M528.62,205.42c-.21.6-2.39.31-5,.62s-4.63,1-5,.48c-.16-.26.2-.82,1-1.39a8.66,8.66,0,0,1,7.56-.83C528.24,204.71,528.72,205.14,528.62,205.42Z"/><path class="cls-5" d="M548.28,202.52c-.38.5-1.89,0-3.69,0s-3.34.33-3.69-.19c-.16-.25.09-.74.75-1.21a5.33,5.33,0,0,1,5.94.19C548.24,201.77,548.45,202.28,548.28,202.52Z"/><path d="M501.07,210.19c2.69-.48,4.84.35,5.6,3,1.13,3.95.36,5.9.55,8.62l4-1.2c-1-9.11,1.27-15.85.28-25,5.56,1.8,13.2-1.64,15.57-7.4a15.48,15.48,0,0,0,16.5,1.16,6.34,6.34,0,0,0,6.79,3.18c3-.85,6.18-5.12,7-8.15,1.56-5.45.8-13.27-3.62-16.82s-13.28-2.7-16.72,1.81c-1.36,1.78-1.52,5.07-3.71,5.52-2,.4-3.72-1-5.5-1.92-5.55-2.75-13.22.9-14.59,6.94-4.64-2.77-10.26-4.58-15.45-3.09s-9.33,7.25-7.56,12.35c.73,2.14,2.38,4,2.56,6.23.35,4.35-4.87,8.29-3.2,12.32.93,2.26,3.66,3.26,4.89,5.37,1.38,2.36.52,5.34.64,8.07.18,4.56,2.52,11.31,6.89,12.61"/><path class="cls-11" d="M501.48,210.14a3.77,3.77,0,0,0-3,2.41,8.3,8.3,0,0,0-.81,3.89,8.65,8.65,0,0,0,1.9,5.8,5,5,0,0,0,5.64,1.43"/><path class="cls-12" d="M504.21,220.24a1.86,1.86,0,0,1-1.52-.06,3.17,3.17,0,0,1-1.37-1,3.62,3.62,0,0,1-.73-2,3.76,3.76,0,0,1,.41-2,3.69,3.69,0,0,1,1.12-1.27c.82-.54,1.46-.51,1.45-.45a8.86,8.86,0,0,0-1.22.75,3.49,3.49,0,0,0-1.24,3,3.12,3.12,0,0,0,1.73,2.65A8.94,8.94,0,0,0,504.21,220.24Z"/><path class="cls-4" d="M528.62,233.14c2,1.37,5.78.65,7.2-1.38a38.21,38.21,0,0,1-8.36-6.15S524.62,230.33,528.62,233.14Z"/><path class="cls-19" d="M535.07,237.76a9.31,9.31,0,0,0-2.54-.6,10,10,0,0,0-2.54.57,1.58,1.58,0,0,1,.6-.58,3.91,3.91,0,0,1,3.89,0C534.93,237.44,535.13,237.71,535.07,237.76Z"/><circle class="cls-23" cx="495.89" cy="386.61" r="4.56"/><path class="cls-3" d="M495.79,386.86l-1.19,3.62-1.55-2.81.45-.25.94,1.7s.06,0,.07,0l.7-2.13h0l-3-.73-.33-.6,3.7.91A.23.23,0,0,1,495.79,386.86Z"/><path class="cls-3" d="M494.61,390.64l-1.65-3,.57-.32.94,1.7.66-2-2.91-.72-.42-.76,3.84.95a.3.3,0,0,1,.19.14.29.29,0,0,1,0,.24h0Zm-1.47-2.94,1.44,2.61,1.15-3.47a.15.15,0,0,0,0-.13.14.14,0,0,0-.1-.08l-3.55-.88.25.44,3.1.77-.14.08-.69,2.1a.11.11,0,0,1-.09.07.14.14,0,0,1-.11-.06l-.9-1.64Z"/><path class="cls-3" d="M496,386.37l1.19-3.62,1.55,2.8-.45.25-.94-1.7a0,0,0,0,0-.07,0l-.7,2.12h0l3,.73.33.61-3.69-.92A.23.23,0,0,1,496,386.37Z"/><path class="cls-3" d="M500,387.68l-3.85-.95a.3.3,0,0,1-.21-.39l1.24-3.76,1.66,3-.58.32-.94-1.71-.66,2,2.91.72Zm-2.79-4.76L496,386.39a.15.15,0,0,0,0,.13.16.16,0,0,0,.1.08l3.55.88-.24-.45-3.11-.76.14-.08.69-2.1a.11.11,0,0,1,.09-.07.09.09,0,0,1,.11.05l.91,1.64.33-.18Z"/><path class="cls-14" d="M474.91,270.42c4.6-3.35,9.95-2.34,14.56,1s7.17,9,7.63,14.67-1,11.35-3.15,16.61c-3.47,8.43-8.6,15.25-16.27,23.93l-19.76,25.95,38.15,37.24-15.81,24.94-31.94-25.71c-10.91-9.21-20.19-18.63-27-28.37"/><path class="cls-24" d="M503.88,413.59,496.94,417a9.78,9.78,0,0,1-10.54-1.18l-4.33-3.53,12-18.87c1.41.61,7.21,1.43,9.21,2.14a15.93,15.93,0,0,0,5.39.9,29.15,29.15,0,0,0,6.11-.5c.13-.05.31-.09.43-.14a2.08,2.08,0,0,1,.86-.15c1.71-.16,3.07,1.64,2.11,3s-5.64,3.3-11.62,3.13h-.28c-5.25,0-.43,4.39,2.68,7a4.13,4.13,0,0,1,1.5,3.75,1.72,1.72,0,0,1-.7,1.29C508.4,414.76,503.88,413.59,503.88,413.59Z"/></g><g id="freepik--character-4--inject-34"><path class="cls-11" d="M490.74,301.79a183.51,183.51,0,0,0,11.49-19.4c4.13-7.88,3.43-8.28,2.44-8.63-2.66-.95-7.79,13.57-8.47,9.77s8.3-17,5.48-17.84c-3.68-1.14-8.77,14.17-9.29,15.43s-2.35.49-1.81-.62c.77-1.59,8.43-18.58,4.82-19.73-2-.63-2.72,3.11-2.72,3.11s-6,16.45-7.69,15.85,1.5-10.39,2.81-13.61.33-5.13-1.54-4.57c-1.28.38-5.53,10.14-6.75,13.35s-4.42,12.1-6.36,6.35c0-.09-.07-.17-.11-.26-1.75-5.72-5-9.54-6.69-10s-2.92,1.4-2.22,3a2,2,0,0,0,.44.75c.09.1.18.25.27.36a30.43,30.43,0,0,1,2.44,5.62,16.55,16.55,0,0,1,.87,5.4c0,2.13,1,8.33.92,9.86"/><path class="cls-15" d="M468.07,293.71l-24.19,48s-13.68-39.57-21.06-55.31c-2.81-6-8.45-10.16-13.86-12.92v-.11l-1.13-.45a58.16,58.16,0,0,0-12.16-4.21c-25.52-7.31-49.56-4.76-77.39,5,0,0-14.45,3.88-21.46,22.73-6.3,17-13.37,43-14.58,47.6-8.67,29.18,3.71,45.43,20.94,43.43,7.1-1.12,13.14-7,15.81-9.28l9.11-8.56.2,6.63-10.23,40.95L422.81,417l-18.9-48.49,4.2-22.23,7.19,17.08a29.93,29.93,0,0,0,54.87.71l24.49-61.66Z"/><path class="cls-5" d="M341.94,353.55a9.85,9.85,0,0,1-.94,1.35c-.63.84-1.58,2.05-2.79,3.5-2.41,2.91-5.88,6.82-9.91,11s-7.87,7.68-10.75,10.13c-1.43,1.24-2.62,2.2-3.46,2.84a8.65,8.65,0,0,1-1.34,1,9.84,9.84,0,0,1,1.21-1.11c.8-.69,2-1.7,3.35-3,2.8-2.53,6.59-6.11,10.61-10.23s7.54-8,10-10.82c1.25-1.42,2.23-2.59,2.91-3.39A9.79,9.79,0,0,1,341.94,353.55Z"/><path class="cls-5" d="M404.25,366.94a2.16,2.16,0,0,1,.05-.56c.08-.42.16-.94.27-1.58l1.09-5.82c.92-4.91,2.18-11.69,3.18-19.24q.38-2.82.68-5.51a30.33,30.33,0,0,0,.29-5.13,52.57,52.57,0,0,0-1.29-8.63c-.54-2.44-1-4.4-1.31-5.77-.14-.69-.22-1.23-.26-1.59a1.82,1.82,0,0,1,0-.57,2.71,2.71,0,0,1,.12.55c.07.36.19.89.36,1.57.33,1.35.88,3.29,1.47,5.73a49.2,49.2,0,0,1,1.41,8.69,31.14,31.14,0,0,1-.26,5.2c-.19,1.79-.42,3.64-.67,5.53-1,7.57-2.33,14.35-3.34,19.24-.52,2.39-.94,4.35-1.25,5.79-.15.63-.27,1.15-.36,1.57A4.12,4.12,0,0,1,404.25,366.94Z"/><path class="cls-5" d="M441.75,353.45a67.08,67.08,0,0,1,2.17-11.66,34.62,34.62,0,0,1-.85,5.92A35.12,35.12,0,0,1,441.75,353.45Z"/><path class="cls-5" d="M445.44,354.87a45,45,0,0,1-1-6.75,44.34,44.34,0,0,1-.53-6.81,46.56,46.56,0,0,1,1,6.75A45.74,45.74,0,0,1,445.44,354.87Z"/><path class="cls-5" d="M368.18,417c-.14,0-.26-16.08-.26-35.9s.12-35.91.26-35.91.26,16.07.26,35.91S368.32,417,368.18,417Z"/><g class="cls-25"><path d="M407.48,315.44c4.91,9.41,9.18,18.77,9.57,29.38.3,8.25-3,15.13.41,22.65-.17.13-3.08-6.35-4.37-9.39-2.65-6.26-5-11.85-5-11.85s1.82-14.13,2-16.54S407.48,315.44,407.48,315.44Z"/></g><g class="cls-25"><path d="M286,363.25c0,4.72-2.93-10.86-.19-14.69,1.93-2.69,5.23-4,8.43-4.79s6.55-1.32,9.39-3c3.67-2.17,6-6,8.57-9.36s6-17.75,10.24-18.06v21a284.85,284.85,0,0,1-31.62,17.73A14.74,14.74,0,0,0,286,363.25Z"/></g><g class="cls-25"><path d="M328.07,369.64c6.85-3.85,11.85-9,19.59-10.33,7.45-1.32,15.12,0,22.66-.52q-.61-5.7-1.25-11.44l-21.57-.24Z"/></g><path class="cls-5" d="M322.39,313.11c.14,0,.26,4.67.26,10.43s-.12,10.44-.26,10.44a100.94,100.94,0,0,1-.26-10.44A100.82,100.82,0,0,1,322.39,313.11Z"/><path class="cls-5" d="M285.93,363.14a4.66,4.66,0,0,1-.12-1.86,13.26,13.26,0,0,1,1.06-4.37,13,13,0,0,1,2.45-3.76,5,5,0,0,1,1.42-1.2,23.9,23.9,0,0,0-3.39,5.17A22.38,22.38,0,0,0,285.93,363.14Z"/><path class="cls-5" d="M290.24,352.27a8.94,8.94,0,0,0,1.57-.57c1-.4,2.44-1,4.19-1.83a145.54,145.54,0,0,0,13.33-7c5.06-3,9.47-5.95,12.56-8.21,1.55-1.14,2.79-2.08,3.62-2.75a9.29,9.29,0,0,0,1.26-1.09,10.9,10.9,0,0,0-1.4.92l-3.71,2.6c-3.15,2.18-7.57,5.09-12.62,8.06s-9.77,5.39-13.22,7.08l-4.1,2A10,10,0,0,0,290.24,352.27Z"/><path d="M421.64,223.53c-1.72-2.25-4.45-4-5-6.75-.69-3.69,3-7.15,2.33-10.85-.44-2.53-2.77-4.31-5.15-5.29s-5-1.45-7.18-2.76a14.46,14.46,0,0,1-5.73-7.06,22.52,22.52,0,0,1-.85-2.43,26.6,26.6,0,0,0-1.21-5.19c-.09-.44-.17-.88-.25-1.32l.11,1a10.51,10.51,0,0,0-1.3-2.34c-1.83-2.44-5.49-3.8-8-2.09l1.2-.8a23.11,23.11,0,0,0-17.83-14,21.38,21.38,0,0,0-4.52-.15c-5.39-.28-13.18,1.29-16.47,3.38-4.2,2.66-8.5,6.31-10.61,10.82-1.13,2.43-1.9,5.24-4,6.86-2.86,2.16-6.87,1.32-10.44,1.72-5.88.67-11,5.18-13,10.75a21.39,21.39,0,0,0,1.64,17.17c.62,1.15,1.35,2.48.86,3.69a4.61,4.61,0,0,1-2.25,2,12.1,12.1,0,0,0-5.44,5.69c-1,2.49-.62,5.64,1.4,7.4a6.06,6.06,0,0,0,6.1.87,13.23,13.23,0,0,0-.93,4.73,9.87,9.87,0,0,0,4.91,8.79c3.13,1.63,7.51.77,9.35-2.24a12.29,12.29,0,0,0,19,10.38c1.48-1,3-2.32,4.75-2s2.74,2,3.94,3.22c3.2,3.33,8.66,3.71,12.87,1.82s7.31-5.67,9.54-9.71a7.44,7.44,0,0,0,10.32,2.06,7.55,7.55,0,0,0,2.95-3.92A12.44,12.44,0,0,0,415,239.92a10.23,10.23,0,0,0,6.63-16.31Zm-100.57,3.09v-.06l.1-.05Z"/><path class="cls-11" d="M384.51,251.71s12.81-2.12,15.46-18.83c1.32-8.31.9-21.93.2-33.06a17.65,17.65,0,0,0-18.72-16.51l-.74.06-29,3.07a5.89,5.89,0,0,0-5.26,6L349.5,265c-2.11.45-6.9,1.49-9.25,2.17,0,0,22.42,50.11,27.91,49.53s27.43-48,27.43-48A115.81,115.81,0,0,0,384,265.87,136.68,136.68,0,0,1,384.51,251.71Z"/><path class="cls-5" d="M393.69,208.92a2.14,2.14,0,0,1-2.06,2.16,2,2,0,0,1-2.2-1.77.92.92,0,0,1,0-.16,2.14,2.14,0,0,1,2.06-2.16,2,2,0,0,1,2.2,1.88Z"/><path class="cls-5" d="M397.22,206.94c-.27.28-1.89-.92-4.2-.91s-4,1.16-4.24.88c-.13-.13.14-.63.88-1.17a6,6,0,0,1,3.41-1,5.71,5.71,0,0,1,3.34,1.08C397.07,206.31,397.35,206.82,397.22,206.94Z"/><path class="cls-5" d="M371.44,209.35a2.13,2.13,0,0,1-2.07,2.16,2,2,0,0,1-2.2-1.77.92.92,0,0,1,0-.16,2.14,2.14,0,0,1,2.07-2.16,2,2,0,0,1,2.2,1.88Z"/><path class="cls-5" d="M374.55,207.37c-.26.28-1.89-.92-4.19-.91s-4,1.16-4.25.88c-.12-.13.15-.63.89-1.17a6,6,0,0,1,3.4-1,5.71,5.71,0,0,1,3.34,1.08C374.44,206.71,374.68,207.25,374.55,207.37Z"/><path class="cls-5" d="M382.92,224.47a15.3,15.3,0,0,1,3.75-.67c.58-.06,1.14-.18,1.24-.58a3.05,3.05,0,0,0-.39-1.75c-.56-1.42-1.13-2.92-1.74-4.48-2.42-6.38-4.17-11.63-3.91-11.73s2.42,5,4.84,11.39l1.67,4.51a3.37,3.37,0,0,1,.3,2.31,1.46,1.46,0,0,1-1,.86,4.3,4.3,0,0,1-1,.14A14.79,14.79,0,0,1,382.92,224.47Z"/><path class="cls-12" d="M384.51,251.71a42.4,42.4,0,0,1-22.37-6s5.43,11.47,22.15,9.91Z"/><path class="cls-26" d="M376.43,228.08a4.65,4.65,0,0,1,1.69-.73,1.51,1.51,0,0,1,1.57.74,3,3,0,0,0,.24.58c.34.46,1.05.29,1.59.45a1.68,1.68,0,0,1,.89,2.2h0a3.4,3.4,0,0,1-2,1.72,7.08,7.08,0,0,1-3.58.49,3,3,0,0,1-2.21-1.1,2.61,2.61,0,0,1,.17-2.86,7.71,7.71,0,0,1,2.29-2"/><path class="cls-5" d="M376.14,226.07c.37,0,.38,2.48,2.52,4.25s4.8,1.5,4.82,1.85c0,.16-.59.49-1.72.52a6.2,6.2,0,0,1-4-1.4,5.42,5.42,0,0,1-2-3.57C375.69,226.71,376,226.05,376.14,226.07Z"/><path class="cls-5" d="M375.59,203.34c-.23.62-2.53.33-5.23.65s-4.9,1.07-5.25.5c-.16-.26.22-.85,1.1-1.46a9.22,9.22,0,0,1,8-.88C375.19,202.55,375.69,203,375.59,203.34Z"/><path class="cls-5" d="M396.37,201.71c-.41.53-2,0-3.91,0s-3.52.35-3.89-.2c-.17-.26.09-.79.79-1.28a5.67,5.67,0,0,1,6.29.19C396.33,200.94,396.55,201.48,396.37,201.71Z"/><path d="M390.4,180.93a22.66,22.66,0,0,1-26.85,17.5l-.57-.13a21.53,21.53,0,0,1-12.69,16.9,45.9,45.9,0,0,1,5.39,27.51c-.49,4-1.66,8.27-4.7,11-4.64,4.16-12.46,3.15-16.92-1.19-4.28-4.17-5.79-10.69-4.58-16.54s4.88-11,9.49-14.76a10.59,10.59,0,0,1-5.46-18.16c1.31-1.24,3-2.16,4-3.67s1.16-3.19,1.73-4.8c1.49-4.21,5.25-7.12,8.83-9.8,3-2.26,6.36-4.62,10.14-4.61,2,0,4,.7,6,.43,2.75-.37,4.9-2.46,7.17-4a15.61,15.61,0,0,1,11-3c3.87.61,7.48,3.5,8.21,7.34"/><path d="M388.91,182.58c-.59,3.23,1,6.54,3.42,8.8a29.64,29.64,0,0,0,8.4,5,38.28,38.28,0,0,0-4.33-9,12.76,12.76,0,0,0-8.12-5.48"/><path class="cls-4" d="M315.43,221.1a2.07,2.07,0,0,1-.09-1,4,4,0,0,1,1.5-2.58,6.62,6.62,0,0,1,4.56-1.24c1.87,0,3.94.62,6.23.48a7.88,7.88,0,0,0,6.08-3.77,8.11,8.11,0,0,0,1.14-3.93c.1-1.43,0-2.93,0-4.49a8.06,8.06,0,0,1,1.46-4.57,9.51,9.51,0,0,1,4-3c3.15-1.43,6.74-1.45,10.18-2.09a14.6,14.6,0,0,0,4.86-1.7,13,13,0,0,0,3.61-3.43c1.95-2.68,3.26-5.67,5.05-8.22A17.22,17.22,0,0,1,384.3,175a17.51,17.51,0,0,1,4.21,2.23,13.42,13.42,0,0,1,2.95,2.78.86.86,0,0,1-.2-.18l-.55-.55a20,20,0,0,0-2.31-1.88,17.55,17.55,0,0,0-10.33-3.09,17.18,17.18,0,0,0-13.63,7.52c-1.75,2.5-3.05,5.49-5,8.25a13.42,13.42,0,0,1-3.76,3.56,14.87,14.87,0,0,1-5,1.77c-3.52.65-7,.67-10.08,2a9.15,9.15,0,0,0-3.8,2.84,7.53,7.53,0,0,0-1.38,4.3c-.09,1.51,0,3-.07,4.49a8.61,8.61,0,0,1-1.23,4.13,8.23,8.23,0,0,1-6.42,3.9c-2.39.12-4.45-.5-6.28-.55a6.48,6.48,0,0,0-4.42,1.11,4,4,0,0,0-1.52,2.44A4.29,4.29,0,0,0,315.43,221.1Z"/><polygon class="cls-5" points="340.27 298.29 341.33 324.93 344.01 350.43 372.34 349.22 370.3 298.87 340.27 298.29"/><polygon class="cls-13" points="336.11 298.2 337.17 324.93 339.85 350.43 368.18 349.22 366.14 298.79 336.11 298.2"/><path class="cls-11" d="M333.45,353.55a183.47,183.47,0,0,0,22.43-2.4c8.78-1.41,8.69-2.2,8.38-3.21-.84-2.7-15.54,1.88-12.9-.94s18.57-3.5,17.57-6.28c-1.29-3.63-16.6,1.45-17.92,1.78s-1.8-1.58-.59-1.82c1.74-.34,19.93-4.36,18.69-7.94-.68-2-4.11-.32-4.11-.32s-16.78,5-17.31,3.33,9.23-5,12.59-5.9,4.31-2.81,2.74-4c-1.07-.79-11.43,1.64-14.73,2.59s-12.34,3.69-8.9-1.31c.06-.08.1-.16.15-.24,3.53-4.82,4.64-9.71,4-11.35s-2.87-1.49-3.72,0a2,2,0,0,0-.34.8,2,2,0,0,1-.13.44,29.83,29.83,0,0,1-3,5.31,16.17,16.17,0,0,1-3.81,3.93c-1.71,1.25-6,5.83-7.35,6.64"/><polygon class="cls-15" points="326.96 331.19 341.94 353.55 317.25 378.73 318.09 337.89 326.96 331.19"/></g><path class="cls-23" d="M149.65,388.91a7.1,7.1,0,1,1-6.83-7.37A7.25,7.25,0,0,1,149.65,388.91Z"/><path class="cls-3" d="M142.49,389.16,138,393.43v-5.29h.85v3.2c0,.06.06.09.1.05l2.63-2.49h0L138,385.46v-1.14l4.45,4.29A.39.39,0,0,1,142.49,389.16Z"/><path class="cls-3" d="M137.91,393.69V388H139v3.2l2.47-2.34-3.52-3.39v-1.44l4.63,4.47a.55.55,0,0,1,.15.36.51.51,0,0,1-.15.35h0Zm.23-5.44v4.93l4.29-4.1a.27.27,0,0,0,.08-.19.28.28,0,0,0-.08-.2l-4.27-4.12v.84l3.74,3.6h-.25l-2.59,2.46a.17.17,0,0,1-.19,0,.18.18,0,0,1-.1-.16v-3.09Z"/><path class="cls-3" d="M143.12,388.62l4.25-4.07v5.06h-.78v-3.08a.06.06,0,0,0-.1,0l-2.49,2.4h0l3.38,3.29v1.08l-4.23-4.09A.38.38,0,0,1,143.12,388.62Z"/><path class="cls-3" d="M147.45,393.49l-4.4-4.25a.48.48,0,0,1,0-.7l4.42-4.23v5.4h-1v-3.08l-2.35,2.26,3.31,3.23Zm-.18-8.7-4.08,3.91a.27.27,0,0,0-.08.19.3.3,0,0,0,.08.2l4.06,3.92v-.8l-3.54-3.44H144l2.46-2.37a.15.15,0,0,1,.18,0,.17.17,0,0,1,.09.15v3h.58Z"/></svg>